{"glyphs":{"0":{"ha":1106,"x_min":42,"x_max":1064,"o":"m 808 486 q 808 636 808 486 q 553 786 808 786 q 297 486 297 786 q 553 186 297 186 q 808 486 808 186 m 529 978 l 576 978 q 767 953 682 978 q 920 873 851 928 q 1026 720 989 818 q 1064 486 1064 622 q 1026 252 1064 350 q 920 99 989 154 q 767 19 851 44 q 576 -6 682 -6 l 529 -6 q 339 19 424 -6 q 185 99 254 44 q 79 252 117 154 q 42 486 42 350 q 79 720 42 622 q 185 873 117 818 q 339 953 254 928 q 529 978 424 978 z "},"1":{"ha":542,"x_min":-22,"x_max":444,"o":"m 279 972 l 379 972 q 426 953 407 972 q 444 908 444 935 l 444 64 q 425 19 444 38 q 379 0 406 0 l 253 0 q 208 18 226 0 q 189 63 189 36 l 189 718 l 111 661 q 80 655 97 651 q 51 671 63 658 l 0 736 q 14 797 -22 767 l 179 940 q 279 972 215 972 z "},"2":{"ha":975,"x_min":42,"x_max":933,"o":"m 42 163 q 77 312 42 249 q 168 411 113 375 q 292 473 224 447 q 428 515 360 499 q 551 547 496 531 q 642 590 607 564 q 678 654 678 617 q 638 758 678 731 q 506 786 599 786 l 457 786 q 285 703 326 786 q 193 639 254 639 l 113 639 q 86 644 100 639 q 58 667 72 649 q 43 714 43 686 q 102 853 43 792 q 249 947 161 915 q 433 978 338 978 l 525 978 q 685 963 615 978 q 813 913 756 947 q 902 813 871 878 q 933 654 933 747 q 898 515 933 575 q 807 419 863 454 q 683 358 751 383 q 547 315 615 332 q 424 283 479 299 q 333 245 368 268 q 297 192 297 222 l 860 192 q 906 173 888 192 q 925 128 925 154 l 925 64 q 906 19 925 38 q 860 0 886 0 l 107 0 q 61 19 81 0 q 42 64 42 38 l 42 163 z "},"3":{"ha":1004,"x_min":35,"x_max":963,"o":"m 521 786 l 471 786 q 299 703 340 786 q 207 639 268 639 l 126 639 q 100 644 114 639 q 72 667 86 649 q 57 714 57 686 q 116 853 57 792 q 263 947 175 915 q 447 978 351 978 l 540 978 q 949 681 949 978 q 856 486 949 557 q 963 290 963 419 q 863 64 963 133 q 569 -6 763 -6 l 425 -6 q 154 69 274 -6 q 35 265 35 144 q 58 323 35 306 q 104 340 82 340 l 185 340 q 282 265 247 340 q 449 186 319 186 l 546 186 q 668 210 629 186 q 707 290 707 233 q 668 371 707 347 q 546 394 629 394 l 424 394 q 378 413 397 394 q 360 458 360 432 l 360 514 q 378 558 360 539 q 421 578 396 578 l 521 578 q 652 601 611 578 q 693 682 693 625 q 652 763 693 739 q 521 786 611 786 z "},"4":{"ha":1056,"x_min":14,"x_max":1028,"o":"m 14 235 l 14 315 q 56 421 14 375 l 504 931 q 610 972 542 972 l 822 972 q 869 953 850 972 q 888 908 888 935 l 888 363 l 963 363 q 1009 344 990 363 q 1028 299 1028 325 l 1028 235 q 1008 190 1028 208 q 963 171 989 171 l 888 171 l 888 64 q 868 19 888 38 q 822 0 849 0 l 696 0 q 651 18 669 0 q 632 63 632 36 l 632 171 l 79 171 q 33 190 53 171 q 14 235 14 208 m 632 363 l 632 756 l 286 363 l 632 363 z "},"5":{"ha":1007,"x_min":56,"x_max":965,"o":"m 572 -6 l 418 -6 q 160 63 265 -6 q 56 235 56 132 q 79 292 56 275 q 125 310 103 310 l 206 310 q 297 246 263 310 q 442 186 331 186 l 549 186 q 671 213 632 186 q 710 303 710 239 q 671 393 710 367 q 549 419 632 419 l 154 419 q 109 438 128 419 q 90 482 90 456 l 90 908 q 109 954 90 936 q 154 972 128 972 l 853 972 q 899 954 881 972 q 917 908 917 936 l 917 844 q 899 799 917 817 q 853 781 881 781 l 346 781 l 346 611 l 572 611 q 865 539 765 611 q 965 303 965 467 q 865 67 965 139 q 572 -6 765 -6 z "},"6":{"ha":1032,"x_min":56,"x_max":990,"o":"m 311 603 l 597 603 q 890 533 790 603 q 990 299 990 463 q 890 65 990 135 q 597 -6 790 -6 l 449 -6 q 154 69 253 -6 q 56 328 56 144 l 56 628 q 153 899 56 821 q 446 978 251 978 l 618 978 q 873 910 771 978 q 975 742 975 843 q 951 684 975 701 q 906 667 928 667 l 825 667 q 733 731 772 667 q 594 786 700 786 l 469 786 q 349 753 386 786 q 311 628 311 719 l 311 603 m 574 411 l 311 411 l 311 328 q 349 215 311 244 q 472 186 386 186 l 574 186 q 696 210 657 186 q 735 299 735 235 q 696 387 735 363 q 574 411 657 411 z "},"7":{"ha":885,"x_min":14,"x_max":871,"o":"m 207 57 l 599 781 l 79 781 q 33 799 51 781 q 14 844 14 818 l 14 908 q 33 953 14 935 q 79 972 53 972 l 806 972 q 851 953 832 972 q 871 908 871 935 l 871 846 q 829 722 871 799 l 474 64 q 385 0 439 0 l 246 0 q 207 18 218 0 q 207 57 196 36 z "},"8":{"ha":1050,"x_min":42,"x_max":1008,"o":"m 458 186 l 592 186 q 714 210 675 186 q 753 293 753 233 q 714 376 753 353 q 592 400 675 400 l 458 400 q 336 376 375 400 q 297 293 297 353 q 336 210 297 233 q 458 186 375 186 m 558 786 l 489 786 q 367 763 406 786 q 328 686 328 740 q 367 609 328 632 q 489 586 406 586 l 558 586 q 681 609 642 586 q 719 686 719 632 q 681 763 719 740 q 558 786 642 786 m 461 978 l 589 978 q 734 963 668 978 q 854 915 800 947 q 939 827 908 883 q 969 696 969 771 q 878 517 969 592 q 1008 292 1008 447 q 900 72 1008 149 q 621 -6 792 -6 l 429 -6 q 150 72 258 -6 q 42 292 42 149 q 172 517 42 447 q 81 696 81 592 q 111 827 81 771 q 196 915 142 883 q 316 963 250 947 q 461 978 382 978 z "},"9":{"ha":1032,"x_min":42,"x_max":976,"o":"m 721 369 l 435 369 q 142 440 242 369 q 42 674 42 510 q 142 908 42 838 q 435 978 242 978 l 583 978 q 878 903 779 978 q 976 644 976 828 l 976 344 q 878 73 976 151 q 586 -6 781 -6 l 414 -6 q 159 62 261 -6 q 57 231 57 129 q 81 288 57 271 q 126 306 104 306 l 207 306 q 299 242 260 306 q 438 186 332 186 l 563 186 q 683 219 646 186 q 721 344 721 253 l 721 369 m 458 561 l 721 561 l 721 644 q 683 757 721 728 q 560 786 646 786 l 458 786 q 336 762 375 786 q 297 674 297 738 q 336 585 297 610 q 458 561 375 561 z "},"¡":{"ha":486,"x_min":0,"x_max":0,"o":""},"¢":{"ha":486,"x_min":0,"x_max":0,"o":""},"£":{"ha":486,"x_min":0,"x_max":0,"o":""},"¥":{"ha":486,"x_min":0,"x_max":0,"o":""},"¨":{"ha":486,"x_min":0,"x_max":0,"o":""},"ª":{"ha":486,"x_min":0,"x_max":0,"o":""},"¯":{"ha":486,"x_min":0,"x_max":0,"o":""},"²":{"ha":486,"x_min":0,"x_max":0,"o":""},"³":{"ha":486,"x_min":0,"x_max":0,"o":""},"´":{"ha":486,"x_min":0,"x_max":0,"o":""},"¸":{"ha":486,"x_min":0,"x_max":0,"o":""},"¹":{"ha":486,"x_min":0,"x_max":0,"o":""},"º":{"ha":486,"x_min":0,"x_max":0,"o":""},"―":{"ha":486,"x_min":0,"x_max":0,"o":""},"‖":{"ha":486,"x_min":0,"x_max":0,"o":""},"‗":{"ha":486,"x_min":0,"x_max":0,"o":""},"‛":{"ha":486,"x_min":0,"x_max":0,"o":""},"‟":{"ha":486,"x_min":0,"x_max":0,"o":""},"‣":{"ha":486,"x_min":0,"x_max":0,"o":""},"․":{"ha":486,"x_min":0,"x_max":0,"o":""},"‥":{"ha":486,"x_min":0,"x_max":0,"o":""}," ":{"ha":486,"x_min":0,"x_max":0,"o":""},"!":{"ha":443,"x_min":83,"x_max":360,"o":"m 89 85 l 89 128 q 113 196 89 172 q 181 219 136 219 l 264 219 q 332 196 308 219 q 356 128 356 172 l 356 85 q 332 17 356 42 q 264 -7 308 -7 l 181 -7 q 113 17 136 -7 q 89 85 89 42 m 275 289 l 168 289 q 124 307 142 289 q 104 351 106 325 l 85 908 q 103 953 83 935 q 149 972 122 972 l 294 972 q 340 953 321 972 q 358 908 360 935 l 339 351 q 319 307 338 325 q 275 289 301 289 z "},"\"":{"ha":547,"x_min":42,"x_max":506,"o":"m 361 972 l 450 972 q 490 956 475 972 q 504 917 506 940 l 483 628 q 465 588 481 603 q 426 572 450 572 l 385 572 q 346 588 361 572 q 328 628 331 603 l 307 917 q 321 956 306 940 q 361 972 336 972 m 97 972 l 186 972 q 226 956 211 972 q 240 917 242 940 l 219 628 q 201 588 217 603 q 163 572 186 572 l 121 572 q 82 588 97 572 q 64 628 67 603 l 43 917 q 57 956 42 940 q 97 972 72 972 z "},"#":{"ha":1163,"x_min":28,"x_max":1135,"o":"m 131 750 l 319 750 l 365 908 q 476 972 383 972 l 554 972 q 589 954 579 972 q 592 908 599 936 l 546 750 l 747 750 l 793 908 q 904 972 811 972 l 982 972 q 1017 954 1007 972 q 1019 908 1026 936 l 974 750 l 1093 750 q 1122 738 1111 750 q 1135 708 1133 726 l 1135 628 q 1122 598 1133 610 q 1093 586 1111 586 l 928 586 l 871 386 l 1014 386 q 1044 374 1032 386 q 1056 344 1056 363 l 1056 264 q 1044 234 1056 246 q 1015 222 1033 222 l 825 222 l 781 64 q 669 0 763 0 l 592 0 q 557 18 567 0 q 554 64 547 36 l 599 222 l 397 222 l 353 64 q 242 0 335 0 l 164 0 q 129 18 139 0 q 126 64 119 36 l 171 222 l 69 222 q 40 234 51 222 q 28 264 28 246 l 28 344 q 40 374 29 363 q 69 386 51 386 l 217 386 l 274 586 l 131 586 q 101 598 113 586 q 89 628 89 610 l 89 708 q 101 738 89 726 q 131 750 113 750 m 496 590 l 438 382 l 647 382 l 706 590 l 496 590 z "},"$":{"ha":1082,"x_min":42,"x_max":1040,"o":"m 433 1040 q 445 1070 433 1058 q 475 1082 457 1082 l 525 1082 l 525 978 l 563 978 l 563 1082 l 613 1082 q 642 1070 631 1082 q 654 1040 654 1058 l 654 978 q 903 905 792 976 q 1015 728 1015 833 q 992 670 1015 688 q 946 653 968 653 l 865 653 q 774 717 804 653 q 654 785 744 778 l 654 572 q 796 534 736 554 q 916 481 856 514 q 1008 396 976 447 q 1040 278 1040 344 q 953 76 1040 149 q 654 -4 865 3 l 654 -68 q 642 -98 654 -86 q 613 -110 631 -110 l 563 -110 l 563 -6 l 525 -6 l 525 -110 l 475 -110 q 445 -98 457 -110 q 433 -68 433 -86 l 433 -6 l 404 -6 q 153 66 265 -6 q 42 244 42 138 q 65 302 42 285 q 111 319 89 319 l 192 319 q 283 256 253 319 q 428 186 317 186 l 433 186 l 433 401 q 320 430 369 415 q 217 469 271 444 q 130 523 164 493 q 73 597 96 553 q 50 694 50 640 q 137 896 50 824 q 433 976 224 968 l 433 1040 m 785 264 q 654 353 785 318 l 654 186 l 665 186 q 785 264 785 186 m 306 708 q 433 619 306 654 l 433 786 l 425 786 q 306 708 306 786 m 563 374 l 525 381 l 525 186 l 563 186 l 563 374 m 525 786 l 525 599 l 563 592 l 563 786 l 525 786 z "},"%":{"ha":1163,"x_min":42,"x_max":1121,"o":"m 913 972 l 1021 972 q 1055 951 1047 972 q 1044 908 1063 931 l 368 64 q 250 0 318 0 l 142 0 q 108 21 115 0 q 118 64 100 42 l 794 908 q 913 972 844 972 m 942 140 q 952 153 942 140 q 963 213 963 167 q 942 285 963 258 q 885 311 921 311 q 828 285 849 311 q 807 213 807 258 q 828 140 807 167 q 885 114 849 114 q 942 140 921 114 m 1053 377 q 1087 347 1053 377 q 1121 213 1121 317 q 1053 48 1121 108 q 885 -12 986 -12 q 716 48 783 -12 q 649 213 649 108 q 716 377 649 317 q 885 438 783 438 q 1053 377 986 438 m 335 689 q 345 702 335 689 q 356 761 356 715 q 335 833 356 807 q 278 860 314 860 q 221 833 242 860 q 200 761 200 807 q 221 689 200 715 q 278 663 242 663 q 335 689 314 663 m 447 926 q 480 895 447 926 q 514 761 514 865 q 447 597 514 657 q 278 536 379 536 q 109 597 176 536 q 42 761 42 657 q 109 926 42 865 q 278 986 176 986 q 447 926 379 986 z "},"&":{"ha":1058,"x_min":42,"x_max":1050,"o":"m 713 71 q 419 -14 581 -14 q 140 67 238 -14 q 42 288 42 147 q 204 551 42 476 q 143 710 143 618 q 238 907 143 828 q 503 986 332 986 q 774 926 675 986 q 872 750 872 867 q 860 720 872 732 q 831 708 849 708 l 740 708 q 663 758 694 708 q 506 822 622 822 q 413 796 446 822 q 379 722 379 769 q 409 632 379 674 q 496 542 439 590 l 731 338 l 797 433 q 853 444 821 465 l 926 394 q 938 336 961 369 l 856 219 l 1029 64 q 1041 22 1050 44 q 1006 0 1032 0 l 851 0 q 796 11 822 0 q 754 34 769 22 q 713 71 739 46 m 436 150 q 579 190 519 150 l 338 408 q 269 288 269 375 q 436 150 269 150 z "},"'":{"ha":283,"x_min":42,"x_max":242,"o":"m 97 972 l 186 972 q 226 956 211 972 q 240 917 242 940 l 219 628 q 201 588 217 603 q 163 572 186 572 l 121 572 q 82 588 97 572 q 64 628 67 603 l 43 917 q 57 956 42 940 q 97 972 72 972 z "},"(":{"ha":451,"x_min":42,"x_max":446,"o":"m 415 889 q 253 424 253 690 q 415 -42 253 157 q 432 -97 446 -76 l 393 -161 q 367 -181 383 -176 q 338 -176 351 -186 q 116 81 190 -79 q 42 424 42 242 q 116 766 42 606 q 338 1024 190 926 q 367 1028 351 1033 q 393 1008 383 1024 l 432 944 q 415 889 446 924 z "},")":{"ha":451,"x_min":6,"x_max":410,"o":"m 36 -42 q 199 424 199 157 q 36 889 199 690 q 19 944 6 924 l 58 1008 q 84 1028 68 1024 q 114 1024 100 1033 q 335 766 261 926 q 410 424 410 606 q 335 81 410 242 q 114 -176 261 -79 q 84 -181 100 -186 q 58 -161 68 -176 l 19 -97 q 36 -42 6 -76 z "},"*":{"ha":592,"x_min":40,"x_max":551,"o":"m 264 972 l 328 972 q 358 962 346 972 q 369 935 369 951 l 368 828 l 458 883 q 491 888 475 893 q 515 868 507 883 l 543 817 q 547 785 551 803 q 528 760 543 768 l 431 708 l 528 657 q 547 631 543 649 q 543 600 551 614 l 515 549 q 491 528 507 533 q 458 533 475 524 l 368 589 l 369 482 q 358 455 369 465 q 328 444 346 444 l 264 444 q 234 455 246 444 q 222 482 222 465 l 224 589 l 133 533 q 101 528 117 524 q 76 549 85 533 l 49 600 q 44 631 40 614 q 64 657 49 649 l 161 708 l 64 760 q 44 785 49 768 q 49 817 40 803 l 76 868 q 101 888 85 883 q 133 883 117 893 l 224 828 l 222 935 q 234 962 222 951 q 264 972 246 972 z "},"+":{"ha":650,"x_min":28,"x_max":622,"o":"m 239 167 l 239 344 l 69 344 q 40 356 51 344 q 28 386 28 368 l 28 467 q 40 497 28 485 q 69 508 51 508 l 239 508 l 239 678 q 251 708 239 696 q 281 719 263 719 l 361 719 q 391 708 379 719 q 403 678 403 696 l 403 508 l 581 508 q 610 497 599 508 q 622 467 622 485 l 622 386 q 610 356 622 368 q 581 344 599 344 l 403 344 l 403 167 q 391 137 403 149 q 361 125 379 125 l 281 125 q 251 137 263 125 q 239 167 239 149 z "},",":{"ha":374,"x_min":24,"x_max":328,"o":"m 308 114 l 228 -90 q 185 -146 214 -124 q 121 -168 157 -168 l 94 -168 q 38 -146 51 -168 q 32 -76 24 -124 l 72 142 q 109 197 78 174 q 175 219 140 219 l 231 219 q 306 191 285 219 q 308 114 328 163 z "},"-":{"ha":650,"x_min":28,"x_max":622,"o":"m 69 508 l 581 508 q 610 497 599 508 q 622 467 622 485 l 622 386 q 610 356 622 368 q 581 344 599 344 l 69 344 q 40 356 51 344 q 28 386 28 368 l 28 467 q 40 497 28 485 q 69 508 51 508 z "},".":{"ha":378,"x_min":56,"x_max":322,"o":"m 56 85 l 56 128 q 79 196 56 172 q 147 219 103 219 l 231 219 q 299 196 275 219 q 322 128 322 172 l 322 85 q 299 17 322 42 q 231 -7 275 -7 l 147 -7 q 79 17 103 -7 q 56 85 56 42 z "},"/":{"ha":715,"x_min":-4,"x_max":719,"o":"m 568 972 l 682 972 q 713 953 707 972 q 706 908 719 933 l 265 64 q 147 0 233 0 l 33 0 q 2 19 8 0 q 10 64 -4 39 l 450 908 q 568 972 482 972 z "},":":{"ha":378,"x_min":56,"x_max":322,"o":"m 56 85 l 56 128 q 79 196 56 172 q 147 219 103 219 l 231 219 q 299 196 275 219 q 322 128 322 172 l 322 85 q 299 17 322 42 q 231 -7 275 -7 l 147 -7 q 79 17 103 -7 q 56 85 56 42 m 56 622 l 56 665 q 79 733 56 708 q 147 757 103 757 l 231 757 q 299 733 275 757 q 322 665 322 708 l 322 622 q 299 554 322 578 q 231 531 275 531 l 147 531 q 79 554 103 531 q 56 622 56 578 z "},";":{"ha":381,"x_min":24,"x_max":328,"o":"m 308 114 l 228 -90 q 185 -146 214 -124 q 121 -168 157 -168 l 94 -168 q 38 -146 51 -168 q 32 -76 24 -124 l 72 142 q 109 197 78 174 q 175 219 140 219 l 231 219 q 306 191 285 219 q 308 114 328 163 m 58 622 l 58 665 q 82 733 58 708 q 150 757 106 757 l 233 757 q 301 733 278 757 q 325 665 325 708 l 325 622 q 301 554 325 578 q 233 531 278 531 l 150 531 q 82 554 106 531 q 58 622 58 578 z "},"<":{"ha":583,"x_min":42,"x_max":528,"o":"m 42 354 l 42 388 q 82 461 42 432 l 468 735 q 510 741 492 750 q 528 707 528 732 l 528 590 q 468 499 528 540 l 288 371 l 468 243 q 528 151 528 201 l 528 35 q 510 1 528 10 q 468 7 492 -8 l 82 281 q 42 354 42 310 z "},"=":{"ha":678,"x_min":42,"x_max":636,"o":"m 83 649 l 594 649 q 624 637 613 649 q 636 607 636 625 l 636 526 q 624 497 636 508 q 594 485 613 485 l 83 485 q 53 497 65 485 q 42 526 42 508 l 42 607 q 53 637 42 625 q 83 649 65 649 m 83 363 l 594 363 q 624 351 613 363 q 636 321 636 339 l 636 240 q 624 210 636 222 q 594 199 613 199 l 83 199 q 53 210 65 199 q 42 240 42 222 l 42 321 q 53 351 42 339 q 83 363 65 363 z "},">":{"ha":583,"x_min":56,"x_max":542,"o":"m 542 388 l 542 354 q 501 281 542 310 l 115 7 q 74 1 92 -8 q 56 35 56 10 l 56 151 q 115 243 56 201 l 296 371 l 115 499 q 56 590 56 540 l 56 707 q 74 741 56 732 q 115 735 92 750 l 501 461 q 542 388 542 432 z "},"?":{"ha":910,"x_min":28,"x_max":868,"o":"m 299 85 l 299 128 q 323 196 299 172 q 390 219 347 219 l 474 219 q 541 196 517 219 q 565 128 565 172 l 565 85 q 541 17 565 42 q 474 -7 517 -7 l 390 -7 q 323 17 347 -7 q 299 85 299 42 m 507 289 l 354 289 q 324 301 336 289 q 313 331 313 313 q 335 433 313 389 q 390 503 357 478 q 463 551 424 529 q 535 589 501 574 q 590 626 568 604 q 613 675 613 649 q 576 760 613 733 q 458 786 539 786 l 424 786 q 269 703 311 786 q 178 639 239 639 l 97 639 q 71 644 85 639 q 42 667 57 649 q 28 714 28 686 q 144 903 28 829 q 400 978 261 978 l 478 978 q 868 675 868 978 q 835 557 868 607 q 756 481 803 507 q 661 433 708 454 q 581 388 614 413 q 549 331 549 363 q 537 301 549 313 q 507 289 525 289 z "},"@":{"ha":1153,"x_min":42,"x_max":1111,"o":"m 544 282 q 681 324 617 282 l 681 396 l 540 396 q 488 380 507 396 q 468 340 468 364 q 488 298 468 314 q 544 282 508 282 m 590 53 q 738 63 682 53 q 807 74 793 74 l 826 74 q 856 60 844 74 q 868 29 868 47 l 868 -35 q 856 -62 868 -50 q 826 -76 844 -74 q 590 -97 722 -97 q 190 47 338 -97 q 42 444 42 190 q 190 842 42 699 q 590 986 338 986 q 972 873 833 986 q 1111 519 1111 760 q 1031 279 1111 372 q 790 186 951 186 l 725 186 q 704 194 713 186 q 696 214 696 203 l 696 229 q 528 178 624 178 q 369 220 431 178 q 308 340 308 263 q 369 458 308 417 q 528 500 431 500 l 681 500 q 658 576 681 554 q 586 597 636 597 q 496 567 524 597 q 443 542 479 542 l 374 542 q 354 549 363 542 q 346 569 346 557 q 599 703 346 703 q 776 653 708 703 q 843 500 843 603 l 843 318 q 938 519 938 318 q 846 759 938 682 q 590 836 754 836 q 315 728 414 836 q 215 444 215 621 q 315 160 215 268 q 590 53 415 53 z "},"A":{"ha":1158,"x_min":10,"x_max":1061,"o":"m 17 63 l 188 708 q 638 972 257 972 l 1003 972 q 1044 953 1028 972 q 1061 910 1061 935 l 1061 63 q 1042 18 1061 36 q 997 0 1024 0 l 869 0 q 824 18 842 0 q 806 64 806 36 l 806 235 l 324 235 l 278 64 q 247 18 271 36 q 197 0 224 0 l 64 0 q 24 18 38 0 q 17 63 10 36 m 433 644 l 374 426 l 806 426 l 806 781 l 613 781 q 499 744 547 781 q 433 644 450 707 z "},"B":{"ha":1146,"x_min":97,"x_max":1104,"o":"m 97 64 l 97 908 q 116 953 97 935 q 161 972 135 972 l 713 972 q 882 947 806 972 q 1012 856 958 921 q 1065 696 1065 792 q 974 517 1065 592 q 1104 292 1104 447 q 1000 76 1104 153 q 744 0 896 0 l 161 0 q 116 19 135 0 q 97 64 97 38 m 715 789 l 353 789 l 353 594 l 715 594 q 784 620 758 594 q 810 692 810 646 q 784 763 810 738 q 715 789 758 789 m 740 417 l 353 417 l 353 183 l 740 183 q 821 215 793 183 q 849 300 849 246 q 821 385 849 354 q 740 417 793 417 z "},"C":{"ha":1135,"x_min":42,"x_max":1100,"o":"m 167 115 q 105 175 167 115 q 42 486 42 235 q 167 858 42 738 q 544 978 293 978 l 696 978 q 968 898 850 978 q 1086 679 1086 818 q 1063 622 1086 639 q 1017 604 1039 604 l 936 604 q 839 679 874 604 q 672 786 789 786 l 551 786 q 350 722 403 786 q 297 486 297 658 q 350 250 297 314 q 551 186 403 186 l 686 186 q 853 293 803 186 q 950 368 888 368 l 1031 368 q 1057 363 1043 368 q 1085 340 1071 358 q 1100 293 1100 321 q 982 74 1100 154 q 710 -6 864 -6 l 544 -6 q 167 115 293 -6 z "},"D":{"ha":1144,"x_min":97,"x_max":1103,"o":"m 161 972 l 540 972 q 969 855 835 972 q 1103 486 1103 738 q 969 117 1103 235 q 540 0 835 0 l 161 0 q 116 18 135 0 q 97 63 97 36 l 97 907 q 116 953 97 935 q 161 972 135 972 m 533 781 l 353 781 l 353 192 l 533 192 q 781 258 715 192 q 847 486 847 325 q 781 714 847 647 q 533 781 715 781 z "},"E":{"ha":1035,"x_min":97,"x_max":1007,"o":"m 943 972 q 988 953 969 972 q 1007 908 1007 935 l 1007 844 q 988 799 1007 818 q 943 781 969 781 l 353 781 l 353 583 l 861 583 q 906 565 888 583 q 925 519 925 546 l 925 456 q 906 410 925 429 q 861 392 888 392 l 353 392 l 353 192 l 942 192 q 986 174 968 192 q 1004 129 1004 156 l 1004 64 q 985 19 1004 38 q 940 0 967 0 l 161 0 q 116 19 135 0 q 97 65 97 38 l 97 910 q 116 954 97 936 q 161 972 135 972 l 943 972 z "},"F":{"ha":1021,"x_min":97,"x_max":1007,"o":"m 289 0 l 161 0 q 116 19 135 0 q 97 65 97 38 l 97 910 q 116 954 97 936 q 161 972 135 972 l 943 972 q 988 953 969 972 q 1007 908 1007 935 l 1007 844 q 988 799 1007 818 q 943 781 969 781 l 353 781 l 353 542 l 833 542 q 878 523 860 542 q 897 478 897 504 l 897 414 q 878 369 897 388 q 833 350 860 350 l 353 350 l 353 65 q 334 19 353 38 q 289 0 315 0 z "},"G":{"ha":1150,"x_min":42,"x_max":1108,"o":"m 857 347 l 704 347 q 659 366 678 347 q 640 411 640 385 l 640 464 q 659 509 640 490 q 704 528 678 528 l 1044 528 q 1090 509 1071 528 q 1108 464 1108 490 l 1108 389 q 994 97 1108 199 q 660 -6 881 -6 l 507 -6 q 162 116 282 -6 q 42 486 42 238 q 167 858 42 738 q 544 978 293 978 l 696 978 q 966 906 846 978 q 1086 728 1086 835 q 1063 670 1086 688 q 1017 653 1039 653 l 936 653 q 844 717 878 653 q 672 786 808 786 l 551 786 q 350 722 403 786 q 297 486 297 658 q 344 251 297 317 q 514 186 392 186 l 653 186 q 809 228 763 186 q 857 347 856 269 z "},"H":{"ha":1172,"x_min":97,"x_max":1075,"o":"m 819 63 l 819 411 l 353 411 l 353 63 q 334 18 353 36 q 289 0 315 0 l 163 0 q 117 19 136 0 q 97 64 97 38 l 97 908 q 116 953 97 935 q 163 972 135 972 l 289 972 q 334 953 315 972 q 353 908 353 935 l 353 603 l 819 603 l 819 908 q 838 953 819 935 q 883 972 857 972 l 1010 972 q 1056 953 1038 972 q 1075 908 1075 935 l 1075 64 q 1056 19 1075 38 q 1010 0 1036 0 l 883 0 q 838 18 857 0 q 819 63 819 36 z "},"I":{"ha":450,"x_min":97,"x_max":353,"o":"m 97 63 l 97 908 q 116 953 97 935 q 161 972 135 972 l 288 972 q 334 953 315 972 q 353 908 353 935 l 353 64 q 333 19 353 38 q 288 0 314 0 l 161 0 q 116 18 135 0 q 97 63 97 36 z "},"J":{"ha":767,"x_min":0,"x_max":683,"o":"m 256 0 l 64 0 q 19 19 38 0 q 0 64 0 38 l 0 140 q 18 185 0 167 q 64 204 36 204 l 86 204 q 142 198 104 204 q 200 192 179 192 l 249 192 q 385 231 343 192 q 428 361 428 269 l 428 908 q 447 953 428 935 q 492 972 465 972 l 618 972 q 665 953 646 972 q 683 908 683 935 l 683 363 q 568 94 683 189 q 256 0 453 0 z "},"K":{"ha":1104,"x_min":97,"x_max":1108,"o":"m 289 0 l 161 0 q 116 19 135 0 q 97 65 97 39 l 97 908 q 116 954 97 935 q 161 974 135 974 l 289 974 q 334 954 315 974 q 353 908 353 935 l 353 583 l 499 583 q 603 616 558 583 q 689 721 649 649 l 794 908 q 892 974 831 974 l 1049 974 q 1080 955 1075 974 q 1069 908 1085 936 l 922 642 q 851 545 890 583 q 747 492 811 507 q 839 435 792 482 q 922 333 886 389 l 1092 64 q 1101 18 1108 36 q 1068 0 1094 0 l 913 0 q 856 19 886 0 q 808 64 825 38 l 689 253 q 603 357 646 322 q 499 392 560 392 l 353 392 l 353 63 q 334 18 353 36 q 289 0 315 0 z "},"L":{"ha":1021,"x_min":97,"x_max":1007,"o":"m 161 972 l 289 972 q 334 953 315 972 q 353 907 353 935 l 353 192 l 943 192 q 988 173 969 192 q 1007 128 1007 154 l 1007 64 q 988 19 1007 38 q 943 0 969 0 l 161 0 q 116 18 135 0 q 97 63 97 36 l 97 907 q 116 953 97 935 q 161 972 135 972 z "},"M":{"ha":1436,"x_min":97,"x_max":1339,"o":"m 767 0 l 669 0 q 619 18 643 0 q 586 61 596 36 l 347 728 l 347 65 q 328 19 347 38 q 283 0 310 0 l 161 0 q 116 19 135 0 q 97 65 97 38 l 97 907 q 115 953 97 935 q 160 972 133 972 l 436 972 q 486 953 463 972 q 518 908 510 935 l 718 329 l 918 908 q 950 953 926 935 q 1000 972 974 972 l 1276 972 q 1321 953 1303 972 q 1339 907 1339 935 l 1339 65 q 1320 19 1339 38 q 1275 0 1301 0 l 1153 0 q 1108 19 1126 0 q 1089 65 1089 38 l 1089 728 l 850 61 q 817 18 840 36 q 767 0 793 0 z "},"N":{"ha":1204,"x_min":97,"x_max":1107,"o":"m 281 0 l 161 0 q 116 19 135 0 q 97 64 97 38 l 97 908 q 115 953 97 935 q 160 972 133 972 l 360 972 q 410 953 383 972 q 453 908 436 935 l 863 278 l 863 910 q 881 954 863 936 q 926 972 900 972 l 1043 972 q 1088 954 1069 972 q 1107 908 1107 936 l 1107 64 q 1088 19 1107 38 q 1043 0 1069 0 l 818 0 q 764 19 792 0 q 719 64 736 38 l 344 646 l 344 64 q 326 19 344 38 q 281 0 307 0 z "},"O":{"ha":1175,"x_min":42,"x_max":1133,"o":"m 809 728 q 775 769 809 728 q 588 810 740 810 q 366 728 435 810 q 297 486 297 647 q 366 244 297 325 q 588 163 435 163 q 809 244 740 163 q 878 486 878 325 q 809 728 878 647 m 181 101 q 111 161 181 101 q 42 486 42 222 q 181 872 42 750 q 588 993 319 993 q 994 872 856 993 q 1133 486 1133 750 q 994 101 1133 222 q 588 -21 856 -21 q 181 101 319 -21 z "},"P":{"ha":1115,"x_min":97,"x_max":1088,"o":"m 600 781 l 353 781 l 353 408 l 600 408 q 773 447 714 408 q 832 594 832 485 q 773 742 832 704 q 600 781 714 781 m 160 972 l 678 972 q 1088 594 1088 972 q 678 217 1088 217 l 353 217 l 353 64 q 334 19 353 38 q 289 0 315 0 l 161 0 q 116 19 135 0 q 97 64 97 38 l 97 908 q 115 953 97 935 q 160 972 133 972 z "},"Q":{"ha":1172,"x_min":42,"x_max":1172,"o":"m 181 114 q 111 174 181 114 q 42 493 42 235 q 181 872 42 751 q 588 993 319 993 q 996 878 858 993 q 1133 507 1133 764 q 1120 385 1133 442 q 1081 286 1107 329 q 1040 224 1054 243 q 1000 176 1025 204 l 1108 176 q 1154 158 1136 176 q 1172 113 1172 139 l 1172 57 q 1154 12 1172 31 q 1108 -7 1136 -7 l 588 -7 q 181 114 319 -7 m 588 810 q 367 729 436 810 q 297 493 297 649 q 367 257 297 338 q 588 176 436 176 q 878 507 878 176 q 809 735 878 661 q 588 810 740 810 z "},"R":{"ha":1122,"x_min":97,"x_max":1113,"o":"m 518 356 l 353 356 l 353 64 q 334 19 353 38 q 289 0 315 0 l 161 0 q 116 19 135 0 q 97 64 97 38 l 97 908 q 115 953 97 935 q 160 972 133 972 l 719 972 q 974 889 875 972 q 1074 664 1074 806 q 818 417 1074 467 q 893 365 858 401 q 972 260 928 329 l 1096 64 q 1106 18 1113 36 q 1072 0 1099 0 l 910 0 q 853 19 883 0 q 806 64 822 38 l 690 244 q 518 356 619 356 m 642 781 l 353 781 l 353 547 l 642 547 q 765 575 711 547 q 818 664 818 603 q 765 753 818 725 q 642 781 711 781 z "},"S":{"ha":1082,"x_min":42,"x_max":1040,"o":"m 50 694 q 147 904 50 831 q 481 978 244 978 l 653 978 q 903 906 792 978 q 1015 728 1015 835 q 992 670 1015 688 q 946 653 968 653 l 865 653 q 774 717 804 653 q 629 786 740 786 l 425 786 q 306 708 306 786 q 381 638 306 665 q 565 590 457 611 q 781 540 674 569 q 965 444 889 511 q 1040 278 1040 378 q 943 68 1040 142 q 610 -6 846 -6 l 404 -6 q 153 66 265 -6 q 42 244 42 138 q 65 302 42 285 q 111 319 89 319 l 192 319 q 283 256 253 319 q 428 186 317 186 l 665 186 q 785 264 785 186 q 744 319 785 296 q 639 357 704 342 q 495 388 574 372 q 339 426 417 403 q 196 480 261 449 q 90 566 131 511 q 50 694 50 621 z "},"T":{"ha":1017,"x_min":14,"x_max":1003,"o":"m 78 972 l 939 972 q 985 954 967 972 q 1003 908 1003 936 l 1003 844 q 985 799 1003 817 q 939 781 967 781 l 636 781 l 636 63 q 617 18 636 36 q 572 0 599 0 l 444 0 q 399 18 418 0 q 381 63 381 36 l 381 781 l 78 781 q 32 799 50 781 q 14 844 14 817 l 14 908 q 32 954 14 936 q 78 972 50 972 z "},"U":{"ha":1144,"x_min":83,"x_max":1061,"o":"m 518 186 l 626 186 q 762 235 718 186 q 806 383 806 283 l 806 908 q 824 953 806 935 q 869 972 843 972 l 996 972 q 1042 953 1024 972 q 1061 908 1061 935 l 1061 385 q 952 97 1061 199 q 633 -6 843 -6 l 511 -6 q 192 97 301 -6 q 83 385 83 199 l 83 908 q 102 953 83 935 q 149 972 121 972 l 275 972 q 320 953 301 972 q 339 908 339 935 l 339 383 q 383 235 339 283 q 518 186 426 186 z "},"V":{"ha":1108,"x_min":8,"x_max":1100,"o":"m 603 0 l 506 0 q 408 69 440 0 l 18 915 q 24 954 8 936 q 63 972 39 972 l 211 972 q 292 908 264 972 l 554 324 l 817 908 q 897 972 844 972 l 1046 972 q 1085 954 1069 972 q 1090 915 1100 936 l 700 69 q 603 0 668 0 z "},"W":{"ha":1556,"x_min":8,"x_max":1547,"o":"m 715 972 l 840 972 q 921 908 901 972 l 1086 371 l 1265 908 q 1297 954 1275 936 q 1346 972 1319 972 l 1494 972 q 1533 955 1518 972 q 1539 915 1547 938 l 1236 69 q 1139 0 1211 0 l 1040 0 q 943 69 965 0 l 778 592 l 613 69 q 515 0 590 0 l 417 0 q 319 69 344 0 l 17 915 q 23 955 8 938 q 61 972 38 972 l 210 972 q 258 954 236 972 q 290 908 281 936 l 469 371 l 635 908 q 715 972 654 972 z "},"X":{"ha":1042,"x_min":8,"x_max":1033,"o":"m 335 908 l 521 672 l 707 908 q 825 972 757 972 l 971 972 q 1006 953 999 972 q 994 908 1014 933 l 672 500 l 1014 64 q 1026 19 1033 39 q 990 0 1018 0 l 846 0 q 728 64 778 0 l 521 328 l 314 64 q 196 0 264 0 l 51 0 q 16 19 24 0 q 28 64 8 39 l 369 500 l 47 908 q 35 953 28 933 q 71 972 43 972 l 217 972 q 335 908 285 972 z "},"Y":{"ha":1031,"x_min":8,"x_max":1022,"o":"m 388 63 l 388 347 l 25 908 q 15 952 8 932 q 49 972 22 972 l 178 972 q 296 908 254 972 l 515 569 l 735 908 q 853 972 776 972 l 982 972 q 1015 952 1008 972 q 1006 908 1022 932 l 643 347 l 643 63 q 624 18 643 36 q 579 0 606 0 l 451 0 q 406 18 425 0 q 388 63 388 36 z "},"Z":{"ha":996,"x_min":35,"x_max":961,"o":"m 99 972 l 890 972 q 935 954 917 972 q 954 908 954 936 l 954 832 q 942 778 954 804 q 920 742 931 753 q 890 711 910 731 l 357 192 l 897 192 q 943 174 925 192 q 961 128 961 156 l 961 64 q 943 18 961 36 q 897 0 925 0 l 110 0 q 65 18 83 0 q 46 64 46 36 l 46 139 q 110 268 46 204 l 626 781 l 99 781 q 53 799 72 781 q 35 844 35 817 l 35 908 q 53 954 35 936 q 99 972 72 972 z "},"[":{"ha":540,"x_min":97,"x_max":526,"o":"m 318 -24 l 485 -24 q 515 -35 503 -24 q 526 -65 526 -47 l 526 -139 q 515 -169 526 -157 q 485 -181 503 -181 l 139 -181 q 109 -169 121 -181 q 97 -139 97 -157 l 97 986 q 109 1016 97 1004 q 139 1028 121 1028 l 485 1028 q 515 1016 503 1028 q 526 986 526 1004 l 526 913 q 515 883 526 894 q 485 871 503 871 l 318 871 l 318 -24 z "},"\\":{"ha":715,"x_min":-4,"x_max":719,"o":"m 33 972 l 147 972 q 265 908 233 972 l 706 64 q 713 19 719 39 q 682 0 707 0 l 568 0 q 450 64 482 0 l 10 908 q 2 953 -4 933 q 33 972 8 972 z "},"]":{"ha":540,"x_min":14,"x_max":443,"o":"m 56 -24 l 222 -24 l 222 871 l 56 871 q 26 883 38 871 q 14 913 14 894 l 14 986 q 26 1016 14 1004 q 56 1028 38 1028 l 401 1028 q 431 1016 419 1028 q 443 986 443 1004 l 443 -139 q 431 -169 443 -157 q 401 -181 419 -181 l 56 -181 q 26 -169 38 -181 q 14 -139 14 -157 l 14 -65 q 26 -35 14 -47 q 56 -24 38 -24 z "},"^":{"ha":739,"x_min":-6,"x_max":744,"o":"m 319 972 l 419 972 q 511 913 471 972 l 729 583 q 735 542 744 561 q 701 524 726 524 l 594 524 q 504 581 542 524 l 369 783 l 235 581 q 144 524 197 524 l 38 524 q 3 542 13 524 q 10 583 -6 561 l 228 913 q 319 972 268 972 z "},"_":{"ha":556,"x_min":0,"x_max":556,"o":"m 42 0 l 514 0 q 544 -12 532 0 q 556 -42 556 -24 l 556 -122 q 544 -152 556 -140 q 514 -164 532 -164 l 42 -164 q 12 -152 24 -164 q 0 -122 0 -140 l 0 -42 q 12 -12 0 -24 q 42 0 24 0 z "},"`":{"ha":382,"x_min":17,"x_max":376,"o":"m 151 661 l 40 867 q 40 943 17 914 q 118 972 63 972 l 174 972 q 236 949 207 972 q 276 894 265 926 l 347 675 q 285 583 376 583 l 258 583 q 151 661 193 583 z "},"a":{"ha":906,"x_min":42,"x_max":822,"o":"m 386 140 q 588 201 490 140 l 588 307 l 379 307 q 304 284 332 307 q 276 225 276 261 q 305 164 276 188 q 386 140 333 140 m 449 603 q 317 557 354 603 q 239 521 288 521 l 138 521 q 108 533 119 521 q 96 563 96 544 q 465 757 96 757 q 724 685 626 757 q 822 461 822 613 l 822 42 q 810 12 822 24 q 781 0 799 0 l 650 0 q 620 12 632 0 q 608 42 608 24 l 608 63 q 363 -14 501 -14 q 131 49 221 -14 q 42 225 42 111 q 131 400 42 339 q 363 461 221 461 l 588 461 q 554 572 588 540 q 449 603 521 603 z "},"b":{"ha":919,"x_min":83,"x_max":878,"o":"m 318 565 l 318 165 q 461 150 376 150 q 597 202 557 150 q 636 371 636 254 q 597 540 636 488 q 465 593 558 593 q 318 565 406 593 m 83 63 l 83 931 q 95 960 83 949 q 125 972 107 972 l 276 972 q 306 960 294 972 q 318 931 318 949 l 318 722 q 514 757 428 757 q 779 658 681 757 q 878 371 878 558 q 447 -14 878 -14 q 243 8 349 -14 q 83 63 138 31 z "},"c":{"ha":863,"x_min":42,"x_max":835,"o":"m 461 593 q 324 541 364 593 q 283 371 283 489 q 325 202 283 254 q 468 150 367 150 q 614 214 574 150 q 692 264 646 264 l 793 264 q 823 252 811 264 q 835 222 835 240 q 734 46 835 106 q 451 -14 633 -14 q 147 84 253 -14 q 42 371 42 182 q 147 659 42 561 q 444 757 251 757 q 727 697 626 757 q 828 521 828 638 q 816 491 828 503 q 786 479 804 479 l 685 479 q 607 529 639 479 q 461 593 567 593 z "},"d":{"ha":919,"x_min":42,"x_max":836,"o":"m 440 150 q 601 211 504 150 l 601 565 q 454 593 514 593 q 322 540 361 593 q 283 371 283 488 q 320 203 283 256 q 440 150 357 150 m 385 -14 q 137 86 232 -14 q 42 371 42 186 q 140 658 42 558 q 406 757 239 757 q 601 722 492 757 l 601 931 q 613 960 601 949 q 643 972 625 972 l 794 972 q 824 960 813 972 q 836 931 836 949 l 836 42 q 824 12 836 24 q 794 0 813 0 l 664 0 q 634 12 646 0 q 622 42 622 24 l 622 63 q 385 -14 515 -14 z "},"e":{"ha":875,"x_min":42,"x_max":833,"o":"m 792 300 l 281 300 q 328 178 288 217 q 454 140 369 140 q 588 186 550 140 q 665 222 617 222 l 767 222 q 797 210 785 222 q 808 181 808 199 q 438 -14 808 -14 q 146 85 250 -14 q 42 371 42 185 q 147 657 42 557 q 438 757 251 757 q 729 660 625 757 q 833 381 833 563 l 833 342 q 822 312 833 324 q 792 300 810 300 m 594 443 q 438 603 588 603 q 279 443 288 603 l 594 443 z "},"f":{"ha":667,"x_min":83,"x_max":694,"o":"m 83 42 l 83 639 q 169 907 83 828 q 472 986 256 986 q 653 972 583 986 q 683 958 671 969 q 694 931 694 946 l 694 856 q 683 826 694 838 q 653 814 671 814 l 628 814 q 583 819 614 814 q 535 825 553 825 q 359 789 400 825 q 318 639 318 753 l 318 628 l 564 628 q 594 616 582 628 q 606 586 606 604 l 606 506 q 594 476 606 488 q 564 464 582 464 l 318 464 l 318 42 q 306 12 318 24 q 276 0 294 0 l 125 0 q 95 12 107 0 q 83 42 83 24 z "},"g":{"ha":906,"x_min":42,"x_max":822,"o":"m 42 404 q 149 665 42 572 q 458 757 257 757 q 663 735 557 757 q 822 681 768 713 l 822 53 q 722 -171 822 -99 q 451 -243 622 -243 q 165 -198 263 -243 q 68 -49 68 -153 q 80 -19 68 -31 q 110 -7 92 -7 l 211 -7 q 289 -43 260 -7 q 435 -89 326 -89 q 552 -58 517 -89 q 588 53 588 -26 l 588 85 q 385 57 479 57 q 136 150 231 57 q 42 404 42 243 m 283 404 q 440 221 283 221 q 588 242 506 221 l 588 578 q 444 593 529 593 q 283 404 283 593 z "},"h":{"ha":947,"x_min":83,"x_max":864,"o":"m 629 42 l 629 431 q 500 593 629 593 q 318 496 415 593 l 318 42 q 306 12 318 24 q 276 0 294 0 l 125 0 q 95 12 107 0 q 83 42 83 24 l 83 931 q 95 960 83 949 q 125 972 107 972 l 276 972 q 306 960 294 972 q 318 931 318 949 l 318 658 q 556 757 435 757 q 781 676 699 757 q 864 431 864 596 l 864 42 q 852 12 864 24 q 822 0 840 0 l 671 0 q 641 12 653 0 q 629 42 629 24 z "},"i":{"ha":407,"x_min":83,"x_max":324,"o":"m 279 0 l 128 0 q 98 12 110 0 q 86 42 86 24 l 86 685 q 98 715 86 703 q 128 726 110 726 l 279 726 q 309 715 297 726 q 321 685 321 703 l 321 42 q 309 12 321 24 q 279 0 297 0 m 83 885 l 83 908 q 104 965 83 944 q 161 986 125 986 l 246 986 q 303 965 282 986 q 324 908 324 944 l 324 885 q 303 828 324 849 q 246 807 282 807 l 161 807 q 104 828 125 807 q 83 885 83 849 z "},"j":{"ha":418,"x_min":-125,"x_max":335,"o":"m 332 685 l 332 76 q 69 -243 332 -243 q -83 -229 -24 -243 q -125 -187 -125 -219 l -125 -114 q -113 -84 -125 -96 q -83 -72 -101 -72 l -62 -72 q -28 -77 -50 -72 q 7 -82 -7 -82 q 71 -44 44 -82 q 97 76 97 -7 l 97 685 q 109 715 97 703 q 139 726 121 726 l 290 726 q 320 715 308 726 q 332 685 332 703 m 94 885 l 94 908 q 115 965 94 944 q 172 986 136 986 l 257 986 q 314 965 293 986 q 335 908 335 944 l 335 885 q 314 828 335 849 q 257 807 293 807 l 172 807 q 115 828 136 807 q 94 885 94 849 z "},"k":{"ha":847,"x_min":83,"x_max":838,"o":"m 318 931 l 318 449 q 479 540 436 449 l 544 679 q 585 726 558 708 q 642 743 611 743 l 769 743 q 793 679 822 743 l 706 494 q 644 415 683 449 q 561 372 606 382 q 706 250 644 347 l 821 64 q 831 18 838 36 q 797 0 824 0 l 669 0 q 565 64 604 0 l 479 204 q 318 294 424 294 l 318 42 q 306 12 318 24 q 276 0 294 0 l 125 0 q 95 12 107 0 q 83 42 83 24 l 83 931 q 95 960 83 949 q 125 972 107 972 l 276 972 q 306 960 294 972 q 318 931 318 949 z "},"l":{"ha":401,"x_min":83,"x_max":318,"o":"m 276 0 l 125 0 q 95 12 107 0 q 83 42 83 24 l 83 931 q 95 960 83 949 q 125 972 107 972 l 276 972 q 306 960 294 972 q 318 931 318 949 l 318 42 q 306 12 318 24 q 276 0 294 0 z "},"m":{"ha":1396,"x_min":83,"x_max":1313,"o":"m 581 42 l 581 431 q 463 593 581 593 q 318 496 388 593 l 318 42 q 306 12 318 24 q 276 0 294 0 l 125 0 q 95 12 107 0 q 83 42 83 24 l 83 701 q 95 731 83 719 q 125 743 107 743 l 276 743 q 306 731 294 743 q 318 701 318 719 l 318 658 q 414 731 367 706 q 528 757 461 757 q 767 626 686 757 q 1025 757 893 757 q 1235 677 1158 757 q 1313 431 1313 597 l 1313 42 q 1301 12 1313 24 q 1271 0 1289 0 l 1119 0 q 1090 12 1101 0 q 1078 42 1078 24 l 1078 431 q 960 593 1078 593 q 811 489 888 593 q 815 431 815 460 l 815 42 q 803 12 815 24 q 774 0 792 0 l 622 0 q 592 12 604 0 q 581 42 581 24 z "},"n":{"ha":947,"x_min":83,"x_max":864,"o":"m 629 42 l 629 431 q 500 593 629 593 q 318 496 415 593 l 318 42 q 306 12 318 24 q 276 0 294 0 l 125 0 q 95 12 107 0 q 83 42 83 24 l 83 701 q 95 731 83 719 q 125 743 107 743 l 276 743 q 306 731 294 743 q 318 701 318 719 l 318 658 q 556 757 435 757 q 781 676 699 757 q 864 431 864 596 l 864 42 q 852 12 864 24 q 822 0 840 0 l 671 0 q 641 12 653 0 q 629 42 629 24 z "},"o":{"ha":903,"x_min":42,"x_max":861,"o":"m 319 196 q 340 168 319 196 q 451 140 361 140 q 584 196 542 140 q 626 372 626 251 q 584 548 626 493 q 451 603 542 603 q 319 548 361 603 q 276 372 276 493 q 319 196 276 251 m 147 660 q 200 708 147 660 q 451 757 253 757 q 756 660 650 757 q 861 372 861 563 q 756 84 861 182 q 451 -14 650 -14 q 147 84 253 -14 q 42 372 42 182 q 147 660 42 563 z "},"p":{"ha":919,"x_min":83,"x_max":878,"o":"m 479 593 q 318 532 415 593 l 318 178 q 465 150 406 150 q 597 203 558 150 q 636 372 636 256 q 599 540 636 488 q 479 593 563 593 m 535 757 q 783 657 688 757 q 878 372 878 557 q 779 85 878 185 q 514 -14 681 -14 q 318 21 428 -14 l 318 -187 q 306 -217 318 -206 q 276 -229 294 -229 l 125 -229 q 95 -217 107 -229 q 83 -187 83 -206 l 83 701 q 95 731 83 719 q 125 743 107 743 l 256 743 q 285 731 274 743 q 297 701 297 719 l 297 681 q 535 757 404 757 z "},"q":{"ha":919,"x_min":42,"x_max":836,"o":"m 458 593 q 323 541 363 593 q 283 372 283 489 q 322 203 283 256 q 454 150 361 150 q 601 178 514 150 l 601 578 q 458 593 543 593 m 472 757 q 676 735 571 757 q 836 681 782 713 l 836 -187 q 824 -217 836 -206 q 794 -229 813 -229 l 643 -229 q 613 -217 625 -229 q 601 -187 601 -206 l 601 21 q 406 -14 492 -14 q 140 85 239 -14 q 42 372 42 185 q 472 757 42 757 z "},"r":{"ha":675,"x_min":83,"x_max":661,"o":"m 661 715 l 661 613 q 649 583 661 594 q 619 571 638 571 l 597 571 q 547 573 582 571 q 493 575 511 575 q 318 475 401 575 l 318 42 q 306 12 318 24 q 276 0 294 0 l 125 0 q 95 12 107 0 q 83 42 83 24 l 83 701 q 95 731 83 719 q 125 743 107 743 l 276 743 q 306 731 294 743 q 318 701 318 719 l 318 658 q 451 733 388 708 q 619 757 515 757 q 649 745 638 757 q 661 715 661 733 z "},"s":{"ha":831,"x_min":42,"x_max":789,"o":"m 789 206 q 688 40 789 93 q 415 -14 588 -14 q 43 181 43 -14 q 55 210 43 199 q 85 222 67 222 l 186 222 q 264 186 235 222 q 399 140 301 140 q 554 206 554 140 q 501 256 554 236 q 373 292 449 276 q 222 332 297 308 q 94 408 147 356 q 42 538 42 460 q 139 703 42 649 q 394 757 236 757 q 767 563 767 757 q 755 533 767 544 q 725 521 743 521 l 624 521 q 546 557 575 521 q 411 603 508 603 q 276 538 276 603 q 329 487 276 507 q 458 451 382 467 q 608 413 533 436 q 736 337 683 389 q 789 206 789 285 z "},"t":{"ha":625,"x_min":83,"x_max":597,"o":"m 556 0 q 375 -14 486 -14 q 83 292 83 -14 l 83 931 q 95 960 83 949 q 125 972 107 972 l 276 972 q 306 960 294 972 q 318 931 318 949 l 318 704 l 507 704 q 537 692 525 704 q 549 663 549 681 l 549 582 q 537 552 549 564 q 507 540 525 540 l 318 540 l 318 292 q 351 185 318 222 q 438 147 383 147 q 486 151 456 147 q 531 156 517 156 l 556 156 q 585 144 574 156 q 597 114 597 132 l 597 42 q 585 15 597 26 q 556 0 574 3 z "},"u":{"ha":947,"x_min":83,"x_max":864,"o":"m 318 701 l 318 313 q 447 150 318 150 q 629 247 532 150 l 629 701 q 641 731 629 719 q 671 743 653 743 l 822 743 q 852 731 840 743 q 864 701 864 719 l 864 42 q 852 12 864 24 q 822 0 840 0 l 671 0 q 641 12 653 0 q 629 42 629 24 l 629 85 q 392 -14 513 -14 q 166 67 249 -14 q 83 313 83 147 l 83 701 q 95 731 83 719 q 125 743 107 743 l 276 743 q 306 731 294 743 q 318 701 318 719 z "},"v":{"ha":911,"x_min":10,"x_max":901,"o":"m 506 0 l 406 0 q 352 17 378 0 q 314 60 326 33 l 21 683 q 17 726 10 708 q 49 743 25 743 l 179 743 q 234 726 208 743 q 271 683 260 710 l 456 261 l 640 683 q 677 726 651 710 q 732 743 703 743 l 863 743 q 894 726 886 743 q 890 683 901 708 l 597 60 q 559 17 585 33 q 506 0 533 0 z "},"w":{"ha":1247,"x_min":0,"x_max":1247,"o":"m 564 743 l 683 743 q 761 683 743 743 l 871 318 l 982 683 q 1017 727 992 711 q 1074 743 1042 743 l 1200 743 q 1228 683 1247 743 l 1022 60 q 988 16 1013 32 q 936 0 964 0 l 840 0 q 788 17 813 0 q 754 60 763 33 l 624 464 l 493 60 q 460 17 485 33 q 407 0 435 0 l 311 0 q 259 16 283 0 q 225 60 235 32 l 19 683 q 47 743 0 743 l 174 743 q 231 727 206 743 q 265 683 256 711 l 376 318 l 486 683 q 564 743 504 743 z "},"x":{"ha":867,"x_min":17,"x_max":850,"o":"m 321 683 l 433 513 l 546 683 q 651 743 586 743 l 799 743 q 822 733 814 743 q 830 710 831 724 q 819 683 829 697 l 599 372 l 835 60 q 844 21 850 42 q 814 0 838 0 l 669 0 q 564 60 607 0 l 433 236 l 303 60 q 197 0 260 0 l 53 0 q 23 21 29 0 q 32 60 17 42 l 268 372 l 47 683 q 37 710 38 697 q 44 733 36 724 q 68 743 53 743 l 215 743 q 321 683 281 743 z "},"y":{"ha":878,"x_min":18,"x_max":867,"o":"m 317 -82 q 450 58 413 -82 q 258 128 335 58 q 125 375 181 197 l 24 703 q 28 731 18 718 q 56 743 39 743 l 197 743 q 235 730 217 743 q 258 697 253 717 l 347 410 q 415 263 381 304 q 496 222 449 222 l 631 697 q 652 730 636 717 q 688 743 668 743 l 831 743 q 857 731 847 743 q 863 703 867 718 l 685 69 q 567 -171 638 -99 q 379 -243 497 -243 q 203 -229 276 -243 q 173 -215 185 -226 q 161 -187 161 -203 l 161 -112 q 173 -83 161 -94 q 203 -71 185 -71 l 228 -71 q 272 -76 243 -71 q 317 -82 300 -82 z "},"z":{"ha":776,"x_min":35,"x_max":742,"o":"m 688 538 l 318 164 l 700 164 q 730 152 718 164 q 742 122 742 140 l 742 42 q 730 12 742 24 q 700 0 718 0 l 76 0 q 47 12 58 0 q 35 42 35 24 l 35 107 q 83 206 35 157 l 440 579 l 76 579 q 47 591 58 579 q 35 621 35 603 l 35 701 q 47 731 35 719 q 76 743 58 743 l 694 743 q 724 731 713 743 q 736 701 736 719 l 736 636 q 688 538 736 586 z "},"{":{"ha":585,"x_min":28,"x_max":571,"o":"m 240 424 q 351 363 308 411 q 393 236 393 314 l 393 104 q 425 11 393 46 q 501 -24 457 -24 l 529 -24 q 559 -35 547 -24 q 571 -65 571 -47 l 571 -139 q 559 -169 571 -157 q 529 -181 547 -181 l 463 -181 q 254 -115 333 -181 q 175 89 175 -50 l 175 257 q 152 317 175 293 q 97 342 129 342 l 69 342 q 40 353 51 342 q 28 383 28 365 l 28 464 q 40 494 28 482 q 69 506 51 506 l 97 506 q 152 530 129 506 q 175 590 175 554 l 175 758 q 254 963 175 897 q 463 1028 333 1028 l 529 1028 q 559 1016 547 1028 q 571 986 571 1004 l 571 913 q 559 883 571 894 q 529 871 547 871 l 501 871 q 425 836 457 871 q 393 743 393 801 l 393 611 q 351 485 393 533 q 240 424 308 436 z "},"|":{"ha":429,"x_min":97,"x_max":332,"o":"m 290 -229 l 139 -229 q 109 -217 121 -229 q 97 -187 97 -206 l 97 931 q 109 960 97 949 q 139 972 121 972 l 290 972 q 320 960 308 972 q 332 931 332 949 l 332 -187 q 320 -217 332 -206 q 290 -229 308 -229 z "},"}":{"ha":585,"x_min":14,"x_max":557,"o":"m 344 424 q 234 485 276 436 q 192 611 192 533 l 192 743 q 160 836 192 801 q 83 871 128 871 l 56 871 q 26 883 38 871 q 14 913 14 894 l 14 986 q 26 1016 14 1004 q 56 1028 38 1028 l 122 1028 q 331 963 251 1028 q 410 758 410 897 l 410 590 q 433 530 410 554 q 488 506 456 506 l 515 506 q 545 494 533 506 q 557 464 557 482 l 557 383 q 545 353 557 365 q 515 342 533 342 l 488 342 q 433 317 456 342 q 410 257 410 293 l 410 89 q 331 -115 410 -50 q 122 -181 251 -181 l 56 -181 q 26 -169 38 -181 q 14 -139 14 -157 l 14 -65 q 26 -35 14 -47 q 56 -24 38 -24 l 83 -24 q 160 11 128 -24 q 192 104 192 46 l 192 236 q 234 363 192 314 q 344 424 276 411 z "},"~":{"ha":825,"x_min":42,"x_max":783,"o":"m 783 517 q 729 374 783 425 q 581 324 675 324 q 419 358 499 324 q 289 393 339 393 q 207 367 238 393 q 143 342 176 342 l 76 342 q 51 351 61 342 q 42 376 42 361 q 96 519 42 468 q 244 569 150 569 q 406 535 326 569 q 536 500 486 500 q 618 526 588 500 q 682 551 649 551 l 749 551 q 774 541 764 551 q 783 517 783 531 z "}," ":{"ha":1158,"x_min":10,"x_max":1061,"o":"m 806 351 l 240 351 l 318 639 q 431 799 347 747 q 631 850 514 850 l 1061 850 l 1061 63 q 1042 18 1061 36 q 997 0 1024 0 l 869 0 q 824 18 842 0 q 806 64 806 36 l 806 228 l 338 228 l 292 64 q 261 18 285 36 q 211 0 238 0 l 149 0 l 233 313 l 806 313 l 806 351 m 17 63 l 188 708 q 638 972 257 972 l 1003 972 q 1044 953 1028 972 q 1061 910 1061 935 l 1061 889 l 618 889 q 388 825 471 889 q 283 675 306 761 l 106 0 l 64 0 q 24 18 38 0 q 17 63 10 36 m 443 631 l 388 433 l 806 433 l 806 767 l 626 767 q 510 730 560 767 q 443 631 460 693 z "},"¤":{"ha":1142,"x_min":14,"x_max":1132,"o":"m 661 781 l 372 781 l 372 547 l 661 547 q 784 575 731 547 q 838 664 838 603 q 784 753 838 725 q 661 781 731 781 m 117 521 l 117 908 q 135 953 117 935 q 179 972 153 972 l 739 972 q 993 895 893 972 q 1093 692 1093 818 q 1023 533 1093 590 q 838 456 953 475 l 14 456 l 14 479 q 26 509 14 497 q 56 521 38 521 l 117 521 m 14 424 l 838 424 q 915 365 878 408 q 1000 246 953 321 l 1115 64 q 1125 18 1132 36 q 1092 0 1118 0 l 929 0 q 872 19 903 0 q 825 64 842 38 l 710 244 q 538 356 639 356 l 372 356 l 372 64 q 353 19 372 38 q 308 0 335 0 l 181 0 q 135 19 154 0 q 117 64 117 38 l 117 358 l 56 358 q 26 370 38 358 q 14 400 14 382 l 14 424 z "},"¦":{"ha":401,"x_min":83,"x_max":318,"o":"m 276 -229 l 125 -229 q 95 -217 107 -229 q 83 -187 83 -206 l 83 285 q 95 315 83 303 q 125 326 107 326 l 276 326 q 306 315 294 326 q 318 285 318 303 l 318 -187 q 306 -217 318 -206 q 276 -229 294 -229 m 276 417 l 125 417 q 95 428 107 417 q 83 458 83 440 l 83 931 q 95 960 83 949 q 125 972 107 972 l 276 972 q 306 960 294 972 q 318 931 318 949 l 318 458 q 306 428 318 440 q 276 417 294 417 z "},"§":{"ha":872,"x_min":56,"x_max":817,"o":"m 69 732 q 436 986 69 986 q 801 792 801 986 q 790 762 801 774 q 760 750 778 750 l 658 750 q 581 786 610 750 q 453 832 543 832 q 338 810 371 832 q 304 739 304 789 q 342 677 304 703 q 438 638 381 651 q 560 601 494 624 q 683 552 626 579 q 778 472 740 525 q 817 344 817 418 q 735 164 817 231 q 803 11 803 100 q 436 -243 803 -243 q 71 -49 71 -243 q 83 -19 71 -31 q 113 -7 94 -7 l 214 -7 q 292 -43 263 -7 q 419 -89 329 -89 q 535 -67 501 -89 q 568 4 568 -46 q 530 66 568 40 q 435 106 492 92 q 312 142 378 119 q 189 191 246 164 q 94 272 132 218 q 56 399 56 325 q 138 578 56 513 q 69 732 69 642 m 290 399 q 302 364 290 379 q 344 334 314 349 q 397 311 375 319 q 470 287 419 303 q 543 264 521 271 q 582 344 582 285 q 575 370 582 358 q 553 392 568 382 q 523 411 539 403 q 481 429 507 419 q 435 445 456 439 q 381 462 414 451 q 328 479 349 472 q 290 399 290 456 z "},"©":{"ha":1181,"x_min":42,"x_max":1139,"o":"m 991 47 q 917 -25 991 47 q 590 -97 843 -97 q 190 47 338 -97 q 42 444 42 190 q 190 842 42 699 q 590 986 338 986 q 991 842 843 986 q 1139 444 1139 699 q 991 47 1139 190 m 310 156 q 360 102 310 156 q 590 49 410 49 q 870 156 771 49 q 969 444 969 263 q 870 733 969 626 q 590 840 771 840 q 310 733 410 840 q 211 444 211 626 q 310 156 211 263 m 599 588 q 509 553 535 588 q 483 443 483 519 q 510 333 483 367 q 603 300 536 300 q 697 342 671 300 q 747 375 717 375 l 814 375 q 833 367 825 375 q 840 347 840 358 q 776 233 840 271 q 592 194 711 194 q 394 258 463 194 q 326 443 326 321 q 394 631 326 567 q 588 694 463 694 q 771 656 706 694 q 836 540 836 617 q 828 522 836 529 q 808 514 819 514 l 743 514 q 693 546 714 514 q 599 588 668 588 z "},"«":{"ha":692,"x_min":28,"x_max":667,"o":"m 28 364 l 28 397 q 54 460 28 425 l 193 638 q 249 668 217 668 l 332 668 q 357 652 353 668 q 346 613 361 636 l 204 381 l 346 149 q 357 109 361 125 q 332 93 353 93 l 249 93 q 193 124 217 93 l 54 301 q 28 364 28 336 m 333 364 l 333 397 q 360 460 333 425 l 499 638 q 554 668 522 668 l 638 668 q 663 652 658 668 q 651 613 667 636 l 510 381 l 651 149 q 663 109 667 125 q 638 93 658 93 l 554 93 q 499 124 522 93 l 360 301 q 333 364 333 336 z "},"¬":{"ha":1158,"x_min":10,"x_max":1061,"o":"m 806 351 l 240 351 l 318 639 q 431 799 347 747 q 631 850 514 850 l 1061 850 l 1061 63 q 1042 18 1061 36 q 997 0 1024 0 l 869 0 q 824 18 842 0 q 806 64 806 36 l 806 228 l 338 228 l 292 64 q 261 18 285 36 q 211 0 238 0 l 149 0 l 233 313 l 806 313 l 806 351 m 17 63 l 188 708 q 638 972 257 972 l 1003 972 q 1044 953 1028 972 q 1061 910 1061 935 l 1061 889 l 618 889 q 388 825 471 889 q 283 675 306 761 l 106 0 l 64 0 q 24 18 38 0 q 17 63 10 36 m 443 631 l 388 433 l 806 433 l 806 767 l 626 767 q 510 730 560 767 q 443 631 460 693 z "},"­":{"ha":650,"x_min":28,"x_max":622,"o":"m 69 508 l 581 508 q 610 497 599 508 q 622 467 622 485 l 622 386 q 610 356 622 368 q 581 344 599 344 l 69 344 q 40 356 51 344 q 28 386 28 368 l 28 467 q 40 497 28 485 q 69 508 51 508 z "},"®":{"ha":1181,"x_min":42,"x_max":1139,"o":"m 991 47 q 917 -25 991 47 q 590 -97 843 -97 q 190 47 338 -97 q 42 444 42 190 q 190 842 42 699 q 590 986 338 986 q 991 842 843 986 q 1139 444 1139 699 q 991 47 1139 190 m 310 156 q 360 102 310 156 q 590 49 410 49 q 870 156 771 49 q 969 444 969 263 q 870 733 969 626 q 590 840 771 840 q 310 733 410 840 q 211 444 211 626 q 310 156 211 263 m 569 378 l 482 378 l 482 228 q 472 204 482 214 q 449 194 463 194 l 382 194 q 358 204 368 194 q 349 228 349 214 l 349 664 q 358 687 349 678 q 382 696 368 696 l 675 696 q 808 653 756 696 q 860 538 860 610 q 726 410 860 435 q 807 329 763 396 l 872 228 q 860 194 892 194 l 775 194 q 719 228 740 194 l 660 321 q 569 378 622 378 m 633 597 l 482 597 l 482 476 l 633 476 q 699 491 671 476 q 726 538 726 506 q 699 583 726 569 q 633 597 671 597 z "},"°":{"ha":556,"x_min":42,"x_max":514,"o":"m 344 678 q 357 693 344 678 q 369 761 369 708 q 344 844 369 814 q 278 874 319 874 q 211 844 236 874 q 186 761 186 814 q 211 678 186 708 q 278 649 236 649 q 344 678 319 649 m 447 926 q 480 895 447 926 q 514 761 514 865 q 447 597 514 657 q 278 536 379 536 q 109 597 176 536 q 42 761 42 657 q 109 926 42 865 q 278 986 176 986 q 447 926 379 986 z "},"±":{"ha":650,"x_min":28,"x_max":622,"o":"m 69 281 l 239 281 l 239 404 l 69 404 q 40 416 51 404 q 28 446 28 428 l 28 526 q 40 556 28 544 q 69 568 51 568 l 239 568 l 239 738 q 251 767 239 756 q 281 779 263 779 l 361 779 q 391 767 379 779 q 403 738 403 756 l 403 568 l 581 568 q 610 556 599 568 q 622 526 622 544 l 622 446 q 610 416 622 428 q 581 404 599 404 l 403 404 l 403 281 l 581 281 q 610 269 599 281 q 622 239 622 257 l 622 158 q 610 128 622 140 q 581 117 599 117 l 69 117 q 40 128 51 117 q 28 158 28 140 l 28 239 q 40 269 28 257 q 69 281 51 281 z "},"µ":{"ha":947,"x_min":83,"x_max":864,"o":"m 276 -229 l 125 -229 q 95 -217 107 -229 q 83 -187 83 -206 l 83 701 q 95 731 83 719 q 125 743 107 743 l 276 743 q 306 731 294 743 q 318 701 318 719 l 318 333 q 358 198 318 246 q 454 150 399 150 q 629 275 554 150 l 629 701 q 641 731 629 719 q 671 743 653 743 l 822 743 q 852 731 840 743 q 864 701 864 719 l 864 42 q 852 12 864 24 q 822 0 840 0 l 671 0 q 641 12 653 0 q 629 42 629 24 l 629 85 q 547 8 583 31 q 458 -14 510 -14 q 318 35 368 -14 l 318 -187 q 306 -217 318 -206 q 276 -229 294 -229 z "},"¶":{"ha":975,"x_min":42,"x_max":947,"o":"m 906 818 l 844 818 l 844 -165 q 825 -210 844 -192 q 779 -229 806 -229 l 624 -229 l 624 818 l 554 818 l 554 -229 l 397 -229 q 352 -210 371 -229 q 333 -165 333 -192 l 333 469 q 125 537 208 469 q 42 722 42 604 q 125 906 42 840 q 333 972 208 972 l 906 972 q 935 960 924 972 q 947 931 947 949 l 947 860 q 935 830 947 842 q 906 818 924 818 z "},"·":{"ha":544,"x_min":139,"x_max":406,"o":"m 139 404 l 139 447 q 163 515 139 492 q 231 539 186 539 l 314 539 q 382 515 358 539 q 406 447 406 492 l 406 404 q 382 337 406 361 q 314 313 358 313 l 231 313 q 163 337 186 313 q 139 404 139 361 z "},"»":{"ha":692,"x_min":25,"x_max":664,"o":"m 664 397 l 664 364 q 638 301 664 336 l 499 124 q 443 93 475 93 l 360 93 q 335 109 339 93 q 346 149 331 125 l 488 381 l 346 613 q 335 652 331 636 q 360 668 339 668 l 443 668 q 499 638 475 668 l 638 460 q 664 397 664 425 m 358 397 l 358 364 q 332 301 358 336 l 193 124 q 138 93 169 93 l 54 93 q 29 109 33 93 q 40 149 25 125 l 182 381 l 40 613 q 29 652 25 636 q 54 668 33 668 l 138 668 q 193 638 169 668 l 332 460 q 358 397 358 425 z "},"Ё":{"ha":1035,"x_min":97,"x_max":1007,"o":"m 943 972 q 988 953 969 972 q 1007 908 1007 935 l 1007 844 q 988 799 1007 818 q 943 781 969 781 l 353 781 l 353 583 l 861 583 q 906 565 888 583 q 925 519 925 546 l 925 456 q 906 410 925 429 q 861 392 888 392 l 353 392 l 353 192 l 942 192 q 986 174 968 192 q 1004 129 1004 156 l 1004 64 q 985 19 1004 38 q 940 0 967 0 l 161 0 q 116 19 135 0 q 97 65 97 38 l 97 910 q 116 954 97 936 q 161 972 135 972 l 943 972 m 268 1122 l 268 1149 q 289 1206 268 1185 q 346 1226 310 1226 l 411 1226 q 468 1206 447 1226 q 489 1149 489 1185 l 489 1122 q 468 1065 489 1086 q 411 1044 447 1044 l 346 1044 q 289 1065 310 1044 q 268 1122 268 1086 m 608 1122 l 608 1149 q 629 1206 608 1185 q 686 1226 650 1226 l 751 1226 q 808 1206 788 1226 q 829 1149 829 1185 l 829 1122 q 808 1065 829 1086 q 751 1044 788 1044 l 686 1044 q 629 1065 650 1044 q 608 1122 608 1086 z "},"Ђ":{"ha":1065,"x_min":14,"x_max":1038,"o":"m 1038 313 l 1038 278 q 756 -14 1038 -14 q 603 -7 644 -14 q 573 8 585 -4 q 561 35 561 19 l 561 122 q 573 152 561 140 q 603 164 585 164 l 624 164 q 658 159 636 164 q 693 154 679 154 q 755 186 728 154 q 782 278 782 218 l 782 313 q 607 476 782 476 q 400 379 483 476 l 400 64 q 381 19 400 38 q 336 0 363 0 l 210 0 q 163 19 182 0 q 144 64 144 38 l 144 783 l 56 783 q 26 795 38 783 q 14 825 14 807 l 14 931 q 26 960 14 949 q 56 972 38 972 l 489 972 q 519 960 507 972 q 531 931 531 949 l 531 825 q 519 795 531 807 q 489 783 507 783 l 400 783 l 400 583 q 644 668 499 668 q 928 579 819 668 q 1038 313 1038 490 z "},"Ѓ":{"ha":894,"x_min":97,"x_max":881,"o":"m 97 63 l 97 908 q 115 954 97 936 q 161 972 133 972 l 817 972 q 863 954 844 972 q 881 908 881 936 l 881 844 q 863 799 881 817 q 817 781 844 781 l 353 781 l 353 63 q 334 18 353 36 q 289 0 315 0 l 161 0 q 116 18 135 0 q 97 63 97 36 m 686 1271 l 592 1106 q 485 1028 547 1028 l 458 1028 q 396 1119 368 1028 l 450 1299 q 490 1353 460 1331 q 553 1376 519 1376 l 608 1376 q 688 1347 664 1376 q 686 1271 711 1317 z "},"Є":{"ha":1135,"x_min":42,"x_max":1100,"o":"m 544 978 l 696 978 q 881 946 793 978 q 1027 847 968 914 q 1086 693 1086 781 q 1063 635 1086 653 q 1017 618 1039 618 l 936 618 q 839 693 875 618 q 672 786 793 786 l 551 786 q 365 740 422 786 q 301 579 308 693 l 665 579 q 710 560 692 579 q 729 515 729 542 l 729 458 q 710 413 729 432 q 665 394 692 394 l 301 394 q 365 233 307 279 q 551 186 422 186 l 686 186 q 853 279 807 186 q 950 354 889 354 l 1031 354 q 1057 349 1043 354 q 1085 326 1071 344 q 1100 279 1100 307 q 1041 125 1100 192 q 894 26 982 58 q 710 -6 807 -6 l 544 -6 q 167 115 293 -6 q 42 486 42 235 q 167 858 42 738 q 544 978 293 978 z "},"Ѕ":{"ha":1082,"x_min":42,"x_max":1040,"o":"m 50 694 q 147 904 50 831 q 481 978 244 978 l 653 978 q 903 906 792 978 q 1015 728 1015 835 q 992 670 1015 688 q 946 653 968 653 l 865 653 q 774 717 804 653 q 629 786 740 786 l 425 786 q 306 708 306 786 q 381 638 306 665 q 565 590 457 611 q 781 540 674 569 q 965 444 889 511 q 1040 278 1040 378 q 943 68 1040 142 q 610 -6 846 -6 l 404 -6 q 153 66 265 -6 q 42 244 42 138 q 65 302 42 285 q 111 319 89 319 l 192 319 q 283 256 253 319 q 428 186 317 186 l 665 186 q 785 264 785 186 q 744 319 785 296 q 639 357 704 342 q 495 388 574 372 q 339 426 417 403 q 196 480 261 449 q 90 566 131 511 q 50 694 50 621 z "},"І":{"ha":450,"x_min":97,"x_max":353,"o":"m 97 63 l 97 908 q 116 953 97 935 q 161 972 135 972 l 288 972 q 334 953 315 972 q 353 908 353 935 l 353 64 q 333 19 353 38 q 288 0 314 0 l 161 0 q 116 18 135 0 q 97 63 97 36 z "},"Ї":{"ha":450,"x_min":-28,"x_max":478,"o":"m 97 63 l 97 908 q 116 953 97 935 q 161 972 135 972 l 288 972 q 334 953 315 972 q 353 908 353 935 l 353 64 q 333 19 353 38 q 288 0 314 0 l 161 0 q 116 18 135 0 q 97 63 97 36 m -28 1122 l -28 1149 q -7 1206 -28 1185 q 50 1226 14 1226 l 104 1226 q 161 1206 140 1226 q 182 1149 182 1185 l 182 1122 q 161 1065 182 1086 q 104 1044 140 1044 l 50 1044 q -7 1065 14 1044 q -28 1122 -28 1086 m 268 1122 l 268 1149 q 289 1206 268 1185 q 346 1226 310 1226 l 400 1226 q 457 1206 436 1226 q 478 1149 478 1185 l 478 1122 q 457 1065 478 1086 q 400 1044 436 1044 l 346 1044 q 289 1065 310 1044 q 268 1122 268 1086 z "},"Ј":{"ha":767,"x_min":0,"x_max":683,"o":"m 256 0 l 64 0 q 19 19 38 0 q 0 64 0 38 l 0 140 q 18 185 0 167 q 64 204 36 204 l 86 204 q 142 198 104 204 q 200 192 179 192 l 249 192 q 385 231 343 192 q 428 361 428 269 l 428 908 q 447 953 428 935 q 492 972 465 972 l 618 972 q 665 953 646 972 q 683 908 683 935 l 683 363 q 568 94 683 189 q 256 0 453 0 z "},"Љ":{"ha":1715,"x_min":11,"x_max":1688,"o":"m 1014 642 l 1318 642 q 1583 557 1478 642 q 1688 321 1688 472 q 1583 85 1688 169 q 1318 0 1478 0 l 822 0 q 777 19 796 0 q 758 64 758 38 l 758 781 l 614 781 q 500 744 549 781 q 435 644 451 707 l 279 64 q 249 18 272 36 q 199 0 225 0 l 61 0 q 24 17 38 0 q 17 57 11 35 l 189 708 q 639 972 258 972 l 957 972 q 997 953 981 972 q 1014 908 1014 933 l 1014 642 m 1318 450 l 1014 450 l 1014 192 l 1318 192 q 1432 321 1432 192 q 1318 450 1432 450 z "},"Њ":{"ha":1733,"x_min":97,"x_max":1706,"o":"m 775 63 l 775 425 l 353 425 l 353 63 q 334 18 353 36 q 289 0 315 0 l 163 0 q 117 19 136 0 q 97 64 97 38 l 97 908 q 116 953 97 935 q 163 972 135 972 l 289 972 q 334 953 315 972 q 353 908 353 935 l 353 617 l 775 617 l 775 908 q 794 953 775 935 q 839 972 813 972 l 965 972 q 1012 953 993 972 q 1031 908 1031 935 l 1031 617 l 1336 617 q 1600 534 1494 617 q 1706 308 1706 451 q 1600 83 1706 165 q 1336 0 1494 0 l 839 0 q 794 18 813 0 q 775 63 775 36 m 1336 425 l 1031 425 l 1031 192 l 1336 192 q 1422 223 1393 192 q 1450 308 1450 254 q 1422 394 1450 363 q 1336 425 1393 425 z "},"Ћ":{"ha":1079,"x_min":14,"x_max":1038,"o":"m 400 379 l 400 64 q 381 19 400 38 q 336 0 363 0 l 210 0 q 163 19 182 0 q 144 64 144 38 l 144 783 l 56 783 q 26 795 38 783 q 14 825 14 807 l 14 931 q 26 960 14 949 q 56 972 38 972 l 489 972 q 519 960 507 972 q 531 931 531 949 l 531 825 q 519 795 531 807 q 489 783 507 783 l 400 783 l 400 583 q 644 668 499 668 q 928 579 819 668 q 1038 313 1038 490 l 1038 64 q 1018 19 1038 38 q 972 0 999 0 l 846 0 q 801 19 819 0 q 782 64 782 38 l 782 313 q 607 476 782 476 q 400 379 483 476 z "},"Ќ":{"ha":1104,"x_min":97,"x_max":1108,"o":"m 289 0 l 161 0 q 116 19 135 0 q 97 65 97 39 l 97 908 q 116 954 97 935 q 161 974 135 974 l 289 974 q 334 954 315 974 q 353 908 353 935 l 353 583 l 499 583 q 603 616 558 583 q 689 721 649 649 l 794 908 q 892 974 831 974 l 1049 974 q 1080 955 1075 974 q 1069 908 1085 936 l 922 642 q 851 545 890 583 q 747 492 811 507 q 839 435 792 482 q 922 333 886 389 l 1092 64 q 1101 18 1108 36 q 1068 0 1094 0 l 913 0 q 856 19 886 0 q 808 64 825 38 l 689 253 q 603 357 646 322 q 499 392 560 392 l 353 392 l 353 63 q 334 18 353 36 q 289 0 315 0 m 776 1243 l 682 1078 q 575 1000 638 1000 l 549 1000 q 486 1092 458 1000 l 540 1271 q 580 1326 550 1303 q 643 1349 610 1349 l 699 1349 q 778 1319 754 1349 q 776 1243 801 1289 z "},"Ў":{"ha":1082,"x_min":8,"x_max":1072,"o":"m 281 204 l 303 204 q 358 198 321 204 q 417 192 396 192 l 431 192 q 615 368 565 192 l 557 368 q 290 438 386 368 q 126 664 194 507 l 19 908 q 19 953 8 935 q 57 972 31 972 l 200 972 q 290 911 265 972 l 368 722 q 455 600 403 640 q 593 560 507 560 l 676 560 l 799 910 q 832 956 808 939 q 883 972 856 972 l 1021 972 q 1060 954 1047 972 q 1064 911 1072 936 l 843 278 q 704 72 797 144 q 444 0 611 0 l 281 0 q 235 19 254 0 q 217 64 217 38 l 217 140 q 235 185 217 167 q 281 204 253 204 m 478 1222 q 565 1174 497 1174 q 653 1222 633 1174 q 700 1257 667 1257 l 756 1257 q 793 1222 793 1257 q 731 1075 793 1129 q 565 1021 668 1021 q 400 1075 463 1021 q 338 1222 338 1129 q 375 1257 338 1257 l 431 1257 q 478 1222 464 1257 z "},"Џ":{"ha":1201,"x_min":97,"x_max":1104,"o":"m 913 972 l 1039 972 q 1085 953 1065 972 q 1104 908 1104 935 l 1104 64 q 1085 19 1104 38 q 1040 0 1067 0 l 715 0 l 715 -186 q 696 -231 715 -212 q 650 -250 676 -250 l 550 -250 q 505 -231 524 -250 q 486 -186 486 -212 l 486 0 l 160 0 q 115 19 133 0 q 97 64 97 38 l 97 908 q 116 953 97 935 q 161 972 135 972 l 289 972 q 334 953 315 972 q 353 908 353 935 l 353 192 l 849 192 l 849 908 q 867 953 849 935 q 913 972 886 972 z "},"А":{"ha":1158,"x_min":10,"x_max":1061,"o":"m 17 63 l 188 708 q 638 972 257 972 l 1003 972 q 1044 953 1028 972 q 1061 910 1061 935 l 1061 63 q 1042 18 1061 36 q 997 0 1024 0 l 869 0 q 824 18 842 0 q 806 64 806 36 l 806 235 l 324 235 l 278 64 q 247 18 271 36 q 197 0 224 0 l 64 0 q 24 18 38 0 q 17 63 10 36 m 433 644 l 374 426 l 806 426 l 806 781 l 613 781 q 499 744 547 781 q 433 644 450 707 z "},"Б":{"ha":1099,"x_min":97,"x_max":1057,"o":"m 688 425 l 353 425 l 353 192 l 688 192 q 801 308 801 192 q 688 425 801 425 m 353 617 l 688 617 q 955 539 853 617 q 1057 308 1057 461 q 955 78 1057 156 q 688 0 853 0 l 158 0 q 115 18 132 0 q 97 63 97 36 l 97 908 q 115 954 97 936 q 161 972 133 972 l 925 972 q 970 953 951 972 q 989 908 989 935 l 989 844 q 971 799 989 818 q 926 781 953 781 l 353 781 l 353 617 z "},"В":{"ha":1146,"x_min":97,"x_max":1104,"o":"m 97 64 l 97 908 q 116 953 97 935 q 161 972 135 972 l 713 972 q 882 947 806 972 q 1012 856 958 921 q 1065 696 1065 792 q 974 517 1065 592 q 1104 292 1104 447 q 1000 76 1104 153 q 744 0 896 0 l 161 0 q 116 19 135 0 q 97 64 97 38 m 715 789 l 353 789 l 353 594 l 715 594 q 784 620 758 594 q 810 692 810 646 q 784 763 810 738 q 715 789 758 789 m 740 417 l 353 417 l 353 183 l 740 183 q 821 215 793 183 q 849 300 849 246 q 821 385 849 354 q 740 417 793 417 z "},"Г":{"ha":894,"x_min":97,"x_max":881,"o":"m 97 63 l 97 908 q 115 954 97 936 q 161 972 133 972 l 817 972 q 863 954 844 972 q 881 908 881 936 l 881 844 q 863 799 881 817 q 817 781 844 781 l 353 781 l 353 63 q 334 18 353 36 q 289 0 315 0 l 161 0 q 116 18 135 0 q 97 63 97 36 z "},"Д":{"ha":1211,"x_min":0,"x_max":1114,"o":"m 117 192 l 243 706 q 683 972 308 972 l 1050 972 q 1095 954 1076 972 q 1114 910 1114 936 l 1114 63 q 1095 18 1114 36 q 1050 0 1076 0 l 64 0 q 19 19 38 0 q 0 64 0 38 l 0 129 q 19 174 0 156 q 64 192 38 192 l 117 192 m 492 647 l 378 192 l 858 192 l 858 781 l 656 781 q 549 745 592 781 q 492 647 507 710 z "},"Е":{"ha":1035,"x_min":97,"x_max":1007,"o":"m 943 972 q 988 953 969 972 q 1007 908 1007 935 l 1007 844 q 988 799 1007 818 q 943 781 969 781 l 353 781 l 353 583 l 861 583 q 906 565 888 583 q 925 519 925 546 l 925 456 q 906 410 925 429 q 861 392 888 392 l 353 392 l 353 192 l 942 192 q 986 174 968 192 q 1004 129 1004 156 l 1004 64 q 985 19 1004 38 q 940 0 967 0 l 161 0 q 116 19 135 0 q 97 65 97 38 l 97 910 q 116 954 97 936 q 161 972 135 972 l 943 972 z "},"Ж":{"ha":1528,"x_min":-4,"x_max":1532,"o":"m 828 0 l 700 0 q 655 18 674 0 q 636 63 636 36 l 636 392 l 606 392 q 501 357 544 392 q 415 253 458 322 l 296 64 q 249 19 279 38 q 192 0 218 0 l 36 0 q 3 18 10 0 q 13 64 -4 36 l 182 333 q 265 435 218 389 q 357 492 313 482 q 253 545 293 507 q 182 642 214 583 l 35 908 q 24 955 19 936 q 56 974 29 974 l 213 974 q 310 908 274 974 l 415 721 q 501 616 456 649 q 606 583 546 583 l 636 583 l 636 908 q 655 954 636 935 q 700 974 674 974 l 828 974 q 873 954 854 974 q 892 908 892 935 l 892 583 l 922 583 q 1027 616 982 583 q 1113 721 1072 649 l 1218 908 q 1315 974 1254 974 l 1472 974 q 1503 955 1499 974 q 1493 908 1508 936 l 1346 642 q 1274 545 1314 583 q 1171 492 1235 507 q 1263 435 1215 482 q 1346 333 1310 389 l 1515 64 q 1525 18 1532 36 q 1492 0 1518 0 l 1336 0 q 1279 19 1310 0 q 1232 64 1249 38 l 1113 253 q 1026 357 1069 322 q 922 392 983 392 l 892 392 l 892 63 q 873 18 892 36 q 828 0 854 0 z "},"З":{"ha":1085,"x_min":35,"x_max":1043,"o":"m 615 786 l 450 786 q 299 703 340 786 q 207 639 268 639 l 126 639 q 100 644 114 639 q 72 667 86 649 q 57 714 57 686 q 174 903 57 829 q 426 978 290 978 l 635 978 q 1029 681 1029 978 q 936 486 1029 557 q 1043 290 1043 419 q 945 64 1043 133 q 664 -6 847 -6 l 404 -6 q 151 70 267 -6 q 35 265 35 146 q 58 323 35 306 q 104 340 82 340 l 185 340 q 282 265 247 340 q 339 208 299 229 q 428 186 379 186 l 640 186 q 751 210 714 186 q 788 290 788 233 q 751 371 788 347 q 640 394 714 394 l 465 394 q 420 413 439 394 q 401 458 401 432 l 401 514 q 419 558 401 539 q 463 578 438 578 l 615 578 q 735 602 697 578 q 774 682 774 626 q 735 762 774 738 q 615 786 697 786 z "},"И":{"ha":1183,"x_min":97,"x_max":1086,"o":"m 1022 0 l 903 0 q 858 19 876 0 q 839 64 839 38 l 839 693 l 485 64 q 441 19 469 38 q 386 0 413 0 l 161 0 q 116 19 135 0 q 97 64 97 38 l 97 908 q 115 954 97 936 q 161 972 133 972 l 281 972 q 326 954 307 972 q 344 910 344 936 l 344 231 l 731 908 q 773 953 746 935 q 824 972 800 972 l 1024 972 q 1068 953 1050 972 q 1086 908 1086 935 l 1086 64 q 1067 19 1086 38 q 1022 0 1049 0 z "},"Й":{"ha":1183,"x_min":97,"x_max":1086,"o":"m 504 1250 q 592 1201 524 1201 q 679 1250 660 1201 q 726 1285 693 1285 l 782 1285 q 819 1250 819 1285 q 757 1103 819 1157 q 592 1049 694 1049 q 426 1103 489 1049 q 364 1250 364 1157 q 401 1285 364 1285 l 457 1285 q 504 1250 490 1285 m 1022 0 l 903 0 q 858 19 876 0 q 839 64 839 38 l 839 693 l 485 64 q 441 19 469 38 q 386 0 413 0 l 161 0 q 116 19 135 0 q 97 64 97 38 l 97 908 q 115 954 97 936 q 161 972 133 972 l 281 972 q 326 954 307 972 q 344 910 344 936 l 344 231 l 731 908 q 773 953 746 935 q 824 972 800 972 l 1024 972 q 1068 953 1050 972 q 1086 908 1086 935 l 1086 64 q 1067 19 1086 38 q 1022 0 1049 0 z "},"К":{"ha":1104,"x_min":97,"x_max":1108,"o":"m 289 0 l 161 0 q 116 19 135 0 q 97 65 97 39 l 97 908 q 116 954 97 935 q 161 974 135 974 l 289 974 q 334 954 315 974 q 353 908 353 935 l 353 583 l 499 583 q 603 616 558 583 q 689 721 649 649 l 794 908 q 892 974 831 974 l 1049 974 q 1080 955 1075 974 q 1069 908 1085 936 l 922 642 q 851 545 890 583 q 747 492 811 507 q 839 435 792 482 q 922 333 886 389 l 1092 64 q 1101 18 1108 36 q 1068 0 1094 0 l 913 0 q 856 19 886 0 q 808 64 825 38 l 689 253 q 603 357 646 322 q 499 392 560 392 l 353 392 l 353 63 q 334 18 353 36 q 289 0 315 0 z "},"Л":{"ha":1132,"x_min":11,"x_max":1035,"o":"m 1035 64 q 1017 19 1035 38 q 972 0 999 0 l 843 0 q 798 19 817 0 q 779 64 779 38 l 779 781 l 614 781 q 500 744 549 781 q 435 644 451 707 l 279 64 q 249 18 272 36 q 199 0 225 0 l 61 0 q 24 17 38 0 q 17 57 11 35 l 189 708 q 639 972 258 972 l 978 972 q 1018 953 1001 972 q 1035 908 1035 933 l 1035 64 z "},"М":{"ha":1436,"x_min":97,"x_max":1339,"o":"m 767 0 l 669 0 q 619 18 643 0 q 586 61 596 36 l 347 728 l 347 65 q 328 19 347 38 q 283 0 310 0 l 161 0 q 116 19 135 0 q 97 65 97 38 l 97 907 q 115 953 97 935 q 160 972 133 972 l 436 972 q 486 953 463 972 q 518 908 510 935 l 718 329 l 918 908 q 950 953 926 935 q 1000 972 974 972 l 1276 972 q 1321 953 1303 972 q 1339 907 1339 935 l 1339 65 q 1320 19 1339 38 q 1275 0 1301 0 l 1153 0 q 1108 19 1126 0 q 1089 65 1089 38 l 1089 728 l 850 61 q 817 18 840 36 q 767 0 793 0 z "},"Н":{"ha":1172,"x_min":97,"x_max":1075,"o":"m 819 63 l 819 411 l 353 411 l 353 63 q 334 18 353 36 q 289 0 315 0 l 163 0 q 117 19 136 0 q 97 64 97 38 l 97 908 q 116 953 97 935 q 163 972 135 972 l 289 972 q 334 953 315 972 q 353 908 353 935 l 353 603 l 819 603 l 819 908 q 838 953 819 935 q 883 972 857 972 l 1010 972 q 1056 953 1038 972 q 1075 908 1075 935 l 1075 64 q 1056 19 1075 38 q 1010 0 1036 0 l 883 0 q 838 18 857 0 q 819 63 819 36 z "},"О":{"ha":1175,"x_min":42,"x_max":1133,"o":"m 809 728 q 775 769 809 728 q 588 810 740 810 q 366 728 435 810 q 297 486 297 647 q 366 244 297 325 q 588 163 435 163 q 809 244 740 163 q 878 486 878 325 q 809 728 878 647 m 181 101 q 111 161 181 101 q 42 486 42 222 q 181 872 42 750 q 588 993 319 993 q 994 872 856 993 q 1133 486 1133 750 q 994 101 1133 222 q 588 -21 856 -21 q 181 101 319 -21 z "},"П":{"ha":1201,"x_min":97,"x_max":1104,"o":"m 1039 0 l 913 0 q 867 19 886 0 q 849 64 849 38 l 849 781 l 353 781 l 353 64 q 334 19 353 38 q 289 0 315 0 l 161 0 q 116 19 135 0 q 97 64 97 38 l 97 908 q 115 953 97 935 q 160 972 133 972 l 1040 972 q 1085 953 1067 972 q 1104 908 1104 935 l 1104 64 q 1085 19 1104 38 q 1039 0 1065 0 z "},"Р":{"ha":1115,"x_min":97,"x_max":1088,"o":"m 600 781 l 353 781 l 353 408 l 600 408 q 773 447 714 408 q 832 594 832 485 q 773 742 832 704 q 600 781 714 781 m 160 972 l 678 972 q 1088 594 1088 972 q 678 217 1088 217 l 353 217 l 353 64 q 334 19 353 38 q 289 0 315 0 l 161 0 q 116 19 135 0 q 97 64 97 38 l 97 908 q 115 953 97 935 q 160 972 133 972 z "},"С":{"ha":1135,"x_min":42,"x_max":1100,"o":"m 167 115 q 105 175 167 115 q 42 486 42 235 q 167 858 42 738 q 544 978 293 978 l 696 978 q 968 898 850 978 q 1086 679 1086 818 q 1063 622 1086 639 q 1017 604 1039 604 l 936 604 q 839 679 874 604 q 672 786 789 786 l 551 786 q 350 722 403 786 q 297 486 297 658 q 350 250 297 314 q 551 186 403 186 l 686 186 q 853 293 803 186 q 950 368 888 368 l 1031 368 q 1057 363 1043 368 q 1085 340 1071 358 q 1100 293 1100 321 q 982 74 1100 154 q 710 -6 864 -6 l 544 -6 q 167 115 293 -6 z "},"Т":{"ha":1017,"x_min":14,"x_max":1003,"o":"m 78 972 l 939 972 q 985 954 967 972 q 1003 908 1003 936 l 1003 844 q 985 799 1003 817 q 939 781 967 781 l 636 781 l 636 63 q 617 18 636 36 q 572 0 599 0 l 444 0 q 399 18 418 0 q 381 63 381 36 l 381 781 l 78 781 q 32 799 50 781 q 14 844 14 817 l 14 908 q 32 954 14 936 q 78 972 50 972 z "},"У":{"ha":1082,"x_min":8,"x_max":1072,"o":"m 281 204 l 303 204 q 358 198 321 204 q 417 192 396 192 l 431 192 q 615 368 565 192 l 557 368 q 290 438 386 368 q 126 664 194 507 l 19 908 q 19 953 8 935 q 57 972 31 972 l 200 972 q 290 911 265 972 l 368 722 q 455 600 403 640 q 593 560 507 560 l 676 560 l 799 910 q 832 956 808 939 q 883 972 856 972 l 1021 972 q 1060 954 1047 972 q 1064 911 1072 936 l 843 278 q 704 72 797 144 q 444 0 611 0 l 281 0 q 235 19 254 0 q 217 64 217 38 l 217 140 q 235 185 217 167 q 281 204 253 204 z "},"Ф":{"ha":1322,"x_min":28,"x_max":1294,"o":"m 782 701 l 782 271 q 970 324 901 271 q 1039 486 1039 378 q 970 648 1039 594 q 782 701 901 701 m 599 1015 l 724 1015 q 770 997 751 1015 q 789 951 789 978 l 789 885 q 1158 790 1021 885 q 1294 486 1294 694 q 1158 183 1294 278 q 789 88 1021 88 l 789 21 q 769 -24 789 -6 q 724 -43 750 -43 l 599 -43 q 553 -24 572 -43 q 533 21 533 -6 l 533 88 q 165 183 301 88 q 28 486 28 278 q 165 790 28 694 q 533 885 301 885 l 533 951 q 552 997 533 978 q 599 1015 571 1015 m 540 271 l 540 701 q 352 648 421 701 q 283 486 283 594 q 352 324 283 378 q 540 271 421 271 z "},"Х":{"ha":1042,"x_min":8,"x_max":1033,"o":"m 335 908 l 521 672 l 707 908 q 825 972 757 972 l 971 972 q 1006 953 999 972 q 994 908 1014 933 l 672 500 l 1014 64 q 1026 19 1033 39 q 990 0 1018 0 l 846 0 q 728 64 778 0 l 521 328 l 314 64 q 196 0 264 0 l 51 0 q 16 19 24 0 q 28 64 8 39 l 369 500 l 47 908 q 35 953 28 933 q 71 972 43 972 l 217 972 q 335 908 285 972 z "},"Ц":{"ha":1201,"x_min":97,"x_max":1201,"o":"m 1138 0 l 161 0 q 116 19 135 0 q 97 64 97 38 l 97 910 q 116 954 97 936 q 161 972 135 972 l 289 972 q 334 953 315 972 q 353 908 353 935 l 353 192 l 808 192 l 808 910 q 827 954 808 936 q 872 972 846 972 l 1000 972 q 1045 953 1026 972 q 1064 908 1064 935 l 1064 192 l 1138 192 q 1183 173 1164 192 q 1201 128 1201 154 l 1201 64 q 1183 19 1201 38 q 1138 0 1164 0 z "},"Ч":{"ha":1090,"x_min":56,"x_max":993,"o":"m 56 681 l 56 908 q 75 953 56 935 q 121 972 94 972 l 247 972 q 292 953 274 972 q 311 908 311 935 l 311 681 q 475 517 311 517 l 738 517 l 738 908 q 756 953 738 935 q 801 972 775 972 l 928 972 q 974 953 956 972 q 993 908 993 935 l 993 64 q 974 19 993 38 q 928 0 954 0 l 801 0 q 756 18 775 0 q 738 63 738 36 l 738 325 l 475 325 q 169 413 282 325 q 56 681 56 501 z "},"Ш":{"ha":1556,"x_min":97,"x_max":1458,"o":"m 650 192 l 650 910 q 669 954 650 936 q 714 972 688 972 l 842 972 q 887 953 868 972 q 906 908 906 935 l 906 192 l 1203 192 l 1203 910 q 1222 954 1203 936 q 1267 972 1240 972 l 1394 972 q 1440 953 1421 972 q 1458 908 1458 935 l 1458 64 q 1440 19 1458 38 q 1394 0 1421 0 l 161 0 q 116 19 135 0 q 97 64 97 38 l 97 908 q 116 953 97 935 q 161 972 135 972 l 289 972 q 334 954 315 972 q 353 910 353 936 l 353 192 l 650 192 z "},"Щ":{"ha":1596,"x_min":97,"x_max":1596,"o":"m 1532 0 l 161 0 q 116 19 135 0 q 97 64 97 38 l 97 908 q 116 953 97 935 q 161 972 135 972 l 289 972 q 334 954 315 972 q 353 910 353 936 l 353 192 l 650 192 l 650 910 q 669 954 650 936 q 714 972 688 972 l 842 972 q 887 953 868 972 q 906 908 906 935 l 906 192 l 1203 192 l 1203 910 q 1222 954 1203 936 q 1267 972 1240 972 l 1394 972 q 1440 953 1421 972 q 1458 908 1458 935 l 1458 192 l 1532 192 q 1577 173 1558 192 q 1596 128 1596 154 l 1596 64 q 1577 19 1596 38 q 1532 0 1558 0 z "},"Ъ":{"ha":1215,"x_min":0,"x_max":1188,"o":"m 818 450 l 497 450 l 497 192 l 818 192 q 932 321 932 192 q 818 450 932 450 m 242 781 l 64 781 q 19 799 38 781 q 0 844 0 818 l 0 908 q 19 953 0 935 q 64 972 38 972 l 433 972 q 478 953 460 972 q 497 908 497 935 l 497 642 l 818 642 q 1083 557 978 642 q 1188 321 1188 472 q 1083 85 1188 169 q 818 0 978 0 l 303 0 q 260 19 278 0 q 242 65 242 39 l 242 781 z "},"Ы":{"ha":1493,"x_min":97,"x_max":1396,"o":"m 632 450 l 353 450 l 353 192 l 632 192 q 746 321 746 192 q 632 450 746 450 m 353 642 l 632 642 q 897 557 792 642 q 1001 321 1001 472 q 897 85 1001 169 q 632 0 792 0 l 158 0 q 115 19 133 0 q 97 65 97 39 l 97 908 q 115 954 97 936 q 161 972 133 972 l 289 972 q 334 953 315 972 q 353 908 353 935 l 353 642 m 1138 63 l 1138 908 q 1156 953 1138 935 q 1201 972 1175 972 l 1331 972 q 1377 953 1358 972 q 1396 908 1396 935 l 1396 64 q 1376 19 1396 38 q 1331 0 1357 0 l 1201 0 q 1156 18 1175 0 q 1138 63 1138 36 z "},"Ь":{"ha":1085,"x_min":97,"x_max":1057,"o":"m 688 450 l 353 450 l 353 192 l 688 192 q 801 321 801 192 q 688 450 801 450 m 353 642 l 688 642 q 952 557 847 642 q 1057 321 1057 472 q 952 85 1057 169 q 688 0 847 0 l 158 0 q 115 19 133 0 q 97 65 97 39 l 97 908 q 115 954 97 936 q 161 972 133 972 l 289 972 q 334 953 315 972 q 353 908 353 935 l 353 642 z "},"Э":{"ha":1135,"x_min":35,"x_max":1093,"o":"m 439 978 l 590 978 q 967 858 842 978 q 1093 486 1093 738 q 967 115 1093 235 q 590 -6 842 -6 l 425 -6 q 240 26 328 -6 q 94 125 153 58 q 35 279 35 192 q 58 337 35 319 q 104 354 82 354 l 185 354 q 282 279 246 354 q 449 186 328 186 l 583 186 q 770 233 713 186 q 833 394 828 279 l 469 394 q 424 413 443 394 q 406 458 406 432 l 406 515 q 424 560 406 542 q 469 579 443 579 l 833 579 q 769 740 826 693 q 583 786 713 786 l 463 786 q 296 693 342 786 q 199 618 260 618 l 118 618 q 92 623 106 618 q 63 647 78 628 q 49 693 49 665 q 108 847 49 781 q 254 946 167 914 q 439 978 342 978 z "},"Ю":{"ha":1547,"x_min":97,"x_max":1506,"o":"m 990 993 q 1506 486 1506 993 q 990 -21 1506 -21 q 478 411 515 -21 l 356 411 l 356 63 q 337 18 356 36 q 292 0 318 0 l 163 0 q 117 19 136 0 q 97 64 97 38 l 97 908 q 116 953 97 935 q 163 972 135 972 l 292 972 q 337 953 318 972 q 356 908 356 935 l 356 604 l 482 604 q 990 993 539 993 m 731 486 q 731 324 731 486 q 990 163 731 163 q 1250 486 1250 163 q 990 810 1250 810 q 731 486 731 810 z "},"Я":{"ha":1104,"x_min":38,"x_max":1007,"o":"m 239 372 q 47 656 47 456 q 152 890 47 807 q 415 972 257 972 l 946 972 q 989 954 971 972 q 1007 910 1007 936 l 1007 63 q 988 18 1007 36 q 943 0 969 0 l 815 0 q 770 19 789 0 q 751 64 751 38 l 751 344 l 508 344 l 346 63 q 247 0 311 0 l 76 0 q 46 20 54 0 q 51 64 38 40 l 239 372 m 415 542 l 751 542 l 751 781 l 415 781 q 303 661 303 781 q 415 542 303 542 z "},"а":{"ha":906,"x_min":42,"x_max":822,"o":"m 386 140 q 588 201 490 140 l 588 307 l 379 307 q 304 284 332 307 q 276 225 276 261 q 305 164 276 188 q 386 140 333 140 m 449 603 q 317 557 354 603 q 239 521 288 521 l 138 521 q 108 533 119 521 q 96 563 96 544 q 465 757 96 757 q 724 685 626 757 q 822 461 822 613 l 822 42 q 810 12 822 24 q 781 0 799 0 l 650 0 q 620 12 632 0 q 608 42 608 24 l 608 63 q 363 -14 501 -14 q 131 49 221 -14 q 42 225 42 111 q 131 400 42 339 q 363 461 221 461 l 588 461 q 554 572 588 540 q 449 603 521 603 z "},"б":{"ha":893,"x_min":42,"x_max":858,"o":"m 322 187 q 344 164 322 187 q 450 140 367 140 q 578 187 533 140 q 624 319 624 233 q 578 451 624 404 q 450 497 533 497 q 322 451 367 497 q 276 319 276 404 q 322 187 276 233 m 229 535 q 492 651 313 651 q 757 565 656 651 q 858 319 858 478 q 754 72 858 158 q 450 -14 650 -14 q 42 361 42 -14 l 42 458 q 124 813 42 692 q 403 953 206 935 l 776 986 q 808 978 794 989 q 821 951 821 968 l 821 863 q 806 821 821 840 q 771 800 792 801 l 486 776 q 287 710 344 765 q 229 535 229 656 z "},"в":{"ha":890,"x_min":83,"x_max":856,"o":"m 560 0 l 125 0 q 95 12 107 0 q 83 42 83 24 l 83 701 q 95 731 83 719 q 125 743 107 743 l 531 743 q 740 693 660 743 q 821 542 821 643 q 738 390 821 442 q 856 208 856 331 q 779 48 856 96 q 560 0 703 0 m 543 304 l 318 304 l 318 151 l 543 151 q 601 172 581 151 q 621 228 621 193 q 601 283 621 263 q 543 304 581 304 m 318 453 l 517 453 q 567 472 547 453 q 586 522 586 492 q 567 572 586 553 q 517 592 547 592 l 318 592 l 318 453 z "},"г":{"ha":688,"x_min":83,"x_max":674,"o":"m 632 579 l 318 579 l 318 42 q 306 12 318 24 q 276 0 294 0 l 125 0 q 95 12 107 0 q 83 42 83 24 l 83 701 q 95 731 83 719 q 125 743 107 743 l 632 743 q 662 731 650 743 q 674 701 674 719 l 674 621 q 662 591 674 603 q 632 579 650 579 z "},"д":{"ha":975,"x_min":14,"x_max":892,"o":"m 850 0 l 56 0 q 26 12 38 0 q 14 42 14 24 l 14 122 q 26 152 14 140 q 56 164 38 164 l 108 164 l 201 538 q 542 743 253 743 l 850 743 q 880 731 868 743 q 892 701 892 719 l 892 42 q 880 12 892 24 q 850 0 868 0 m 331 164 l 657 164 l 657 579 l 535 579 q 410 479 436 579 l 331 164 z "},"е":{"ha":875,"x_min":42,"x_max":833,"o":"m 792 300 l 281 300 q 328 178 288 217 q 454 140 369 140 q 588 186 550 140 q 665 222 617 222 l 767 222 q 797 210 785 222 q 808 181 808 199 q 438 -14 808 -14 q 146 85 250 -14 q 42 371 42 185 q 147 657 42 557 q 438 757 251 757 q 729 660 625 757 q 833 381 833 563 l 833 342 q 822 312 833 324 q 792 300 810 300 m 594 443 q 438 603 588 603 q 279 443 288 603 l 594 443 z "},"ж":{"ha":1210,"x_min":11,"x_max":1199,"o":"m 681 0 l 529 0 q 499 12 511 0 q 488 42 488 24 l 488 294 q 354 204 400 294 l 282 64 q 178 0 249 0 l 50 0 q 17 18 24 0 q 26 64 11 36 l 128 250 q 272 372 182 351 q 183 418 221 385 q 128 494 146 451 l 54 679 q 78 743 28 743 l 206 743 q 265 726 239 743 q 303 679 292 708 l 354 540 q 488 449 389 449 l 488 701 q 499 731 488 719 q 529 743 511 743 l 681 743 q 710 731 699 743 q 722 701 722 719 l 722 449 q 856 540 821 449 l 907 679 q 944 726 918 708 q 1004 743 971 743 l 1132 743 q 1156 679 1182 743 l 1082 494 q 1026 418 1064 451 q 938 372 989 385 q 1082 250 1028 351 l 1183 64 q 1192 18 1199 36 q 1160 0 1186 0 l 1032 0 q 928 64 961 0 l 856 204 q 722 294 810 294 l 722 42 q 710 12 722 24 q 681 0 699 0 z "},"з":{"ha":849,"x_min":28,"x_max":814,"o":"m 343 140 l 481 140 q 579 222 579 140 q 481 301 579 301 l 313 301 q 283 313 294 301 q 271 343 271 325 l 271 414 q 283 444 271 432 q 313 456 294 456 l 468 456 q 535 476 513 456 q 558 529 558 496 q 535 583 558 563 q 468 603 513 603 l 343 603 q 294 591 319 603 q 257 557 269 579 q 185 511 231 511 l 83 511 q 53 523 65 511 q 42 553 42 535 q 131 701 42 644 q 346 757 219 757 l 482 757 q 709 704 625 757 q 793 549 793 651 q 696 390 793 438 q 814 201 814 331 q 734 38 814 89 q 497 -14 654 -14 l 346 -14 q 119 42 210 -14 q 28 190 28 97 q 40 220 28 208 q 69 232 51 232 l 171 232 q 243 186 217 232 q 343 140 269 140 z "},"и":{"ha":939,"x_min":83,"x_max":856,"o":"m 308 256 l 547 694 q 581 729 558 715 q 624 743 603 743 l 814 743 q 844 731 832 743 q 856 701 856 719 l 856 42 q 844 12 856 24 q 814 0 832 0 l 672 0 q 642 12 654 0 q 631 42 631 24 l 631 486 l 392 49 q 358 15 381 29 q 315 0 336 0 l 125 0 q 95 12 107 0 q 83 42 83 24 l 83 701 q 95 731 83 719 q 125 743 107 743 l 267 743 q 297 731 285 743 q 308 701 308 719 l 308 256 z "},"й":{"ha":939,"x_min":83,"x_max":856,"o":"m 279 1035 l 331 1035 q 378 1000 364 1035 q 469 944 400 944 q 561 1000 539 944 q 608 1035 575 1035 l 660 1035 q 697 1000 697 1035 q 634 870 697 921 q 469 819 571 819 q 305 870 368 819 q 242 1000 242 921 q 279 1035 242 1035 m 308 256 l 547 694 q 581 729 558 715 q 624 743 603 743 l 814 743 q 844 731 832 743 q 856 701 856 719 l 856 42 q 844 12 856 24 q 814 0 832 0 l 672 0 q 642 12 654 0 q 631 42 631 24 l 631 486 l 392 49 q 358 15 381 29 q 315 0 336 0 l 125 0 q 95 12 107 0 q 83 42 83 24 l 83 701 q 95 731 83 719 q 125 743 107 743 l 267 743 q 297 731 285 743 q 308 701 308 719 l 308 256 z "},"к":{"ha":847,"x_min":83,"x_max":838,"o":"m 793 679 l 706 494 q 644 415 683 449 q 561 372 606 382 q 706 250 644 347 l 821 64 q 831 18 838 36 q 797 0 824 0 l 669 0 q 565 64 604 0 l 479 204 q 318 294 424 294 l 318 42 q 306 12 318 24 q 276 0 294 0 l 125 0 q 95 12 107 0 q 83 42 83 24 l 83 701 q 95 731 83 719 q 125 743 107 743 l 276 743 q 306 731 294 743 q 318 701 318 719 l 318 449 q 479 540 436 449 l 544 679 q 585 726 558 708 q 642 743 611 743 l 769 743 q 793 679 822 743 z "},"л":{"ha":924,"x_min":11,"x_max":840,"o":"m 358 479 l 251 50 q 228 14 246 28 q 189 0 210 0 l 50 0 q 22 13 32 0 q 15 44 11 26 l 138 538 q 478 743 189 743 l 799 743 q 828 731 817 743 q 840 701 840 719 l 840 42 q 828 12 840 24 q 799 0 817 0 l 647 0 q 617 12 629 0 q 606 42 606 24 l 606 579 l 478 579 q 358 479 383 579 z "},"м":{"ha":1169,"x_min":83,"x_max":1086,"o":"m 618 0 l 551 0 q 488 47 508 0 l 314 465 l 314 42 q 302 12 314 24 q 272 0 290 0 l 125 0 q 95 12 107 0 q 83 42 83 24 l 83 701 q 95 731 83 719 q 125 743 107 743 l 358 743 q 419 693 399 743 l 585 289 l 750 693 q 811 743 771 743 l 1044 743 q 1074 731 1063 743 q 1086 701 1086 719 l 1086 42 q 1074 12 1086 24 q 1044 0 1063 0 l 897 0 q 867 12 879 0 q 856 42 856 24 l 856 465 l 682 47 q 618 0 661 0 z "},"н":{"ha":933,"x_min":83,"x_max":850,"o":"m 318 701 l 318 458 l 615 458 l 615 701 q 627 731 615 719 q 657 743 639 743 l 808 743 q 838 731 826 743 q 850 701 850 719 l 850 42 q 838 12 850 24 q 808 0 826 0 l 657 0 q 627 12 639 0 q 615 42 615 24 l 615 294 l 318 294 l 318 42 q 306 12 318 24 q 276 0 294 0 l 125 0 q 95 12 107 0 q 83 42 83 24 l 83 701 q 95 731 83 719 q 125 743 107 743 l 276 743 q 306 731 294 743 q 318 701 318 719 z "},"о":{"ha":903,"x_min":42,"x_max":861,"o":"m 319 196 q 340 168 319 196 q 451 140 361 140 q 584 196 542 140 q 626 372 626 251 q 584 548 626 493 q 451 603 542 603 q 319 548 361 603 q 276 372 276 493 q 319 196 276 251 m 147 660 q 200 708 147 660 q 451 757 253 757 q 756 660 650 757 q 861 372 861 563 q 756 84 861 182 q 451 -14 650 -14 q 147 84 253 -14 q 42 372 42 182 q 147 660 42 563 z "},"п":{"ha":933,"x_min":83,"x_max":850,"o":"m 850 701 l 850 42 q 838 12 850 24 q 808 0 826 0 l 657 0 q 627 12 639 0 q 615 42 615 24 l 615 579 l 318 579 l 318 42 q 306 12 318 24 q 276 0 294 0 l 125 0 q 95 12 107 0 q 83 42 83 24 l 83 701 q 95 731 83 719 q 125 743 107 743 l 808 743 q 838 731 826 743 q 850 701 850 719 z "},"р":{"ha":919,"x_min":83,"x_max":878,"o":"m 479 593 q 318 532 415 593 l 318 178 q 465 150 406 150 q 597 203 558 150 q 636 372 636 256 q 599 540 636 488 q 479 593 563 593 m 535 757 q 783 657 688 757 q 878 372 878 557 q 779 85 878 185 q 514 -14 681 -14 q 318 21 428 -14 l 318 -187 q 306 -217 318 -206 q 276 -229 294 -229 l 125 -229 q 95 -217 107 -229 q 83 -187 83 -206 l 83 701 q 95 731 83 719 q 125 743 107 743 l 256 743 q 285 731 274 743 q 297 701 297 719 l 297 681 q 535 757 404 757 z "},"с":{"ha":863,"x_min":42,"x_max":835,"o":"m 461 593 q 324 541 364 593 q 283 371 283 489 q 325 202 283 254 q 468 150 367 150 q 614 214 574 150 q 692 264 646 264 l 793 264 q 823 252 811 264 q 835 222 835 240 q 734 46 835 106 q 451 -14 633 -14 q 147 84 253 -14 q 42 371 42 182 q 147 659 42 561 q 444 757 251 757 q 727 697 626 757 q 828 521 828 638 q 816 491 828 503 q 786 479 804 479 l 685 479 q 607 529 639 479 q 461 593 567 593 z "},"т":{"ha":779,"x_min":14,"x_max":765,"o":"m 56 743 l 724 743 q 753 731 742 743 q 765 701 765 719 l 765 621 q 753 591 765 603 q 724 579 742 579 l 507 579 l 507 42 q 495 12 507 24 q 465 0 483 0 l 314 0 q 284 12 296 0 q 272 42 272 24 l 272 579 l 56 579 q 26 591 38 579 q 14 621 14 603 l 14 701 q 26 731 14 719 q 56 743 38 743 z "},"у":{"ha":878,"x_min":18,"x_max":867,"o":"m 317 -82 q 450 58 413 -82 q 258 128 335 58 q 125 375 181 197 l 24 703 q 28 731 18 718 q 56 743 39 743 l 197 743 q 235 730 217 743 q 258 697 253 717 l 347 410 q 415 263 381 304 q 496 222 449 222 l 631 697 q 652 730 636 717 q 688 743 668 743 l 831 743 q 857 731 847 743 q 863 703 867 718 l 685 69 q 567 -171 638 -99 q 379 -243 497 -243 q 203 -229 276 -243 q 173 -215 185 -226 q 161 -187 161 -203 l 161 -112 q 173 -83 161 -94 q 203 -71 185 -71 l 228 -71 q 272 -76 243 -71 q 317 -82 300 -82 z "},"ф":{"ha":1113,"x_min":28,"x_max":1085,"o":"m 669 594 l 669 149 q 806 203 761 150 q 850 372 850 257 q 806 540 850 488 q 669 594 761 593 m 439 743 l 439 931 q 451 960 439 949 q 481 972 463 972 l 632 972 q 662 960 650 972 q 674 931 674 949 l 674 743 q 979 644 874 738 q 1085 372 1085 551 q 979 99 1085 193 q 674 0 874 6 l 674 -187 q 662 -217 674 -206 q 632 -229 650 -229 l 481 -229 q 451 -217 463 -229 q 439 -187 439 -206 l 439 0 q 133 99 239 6 q 28 372 28 193 q 133 644 28 551 q 439 743 239 738 m 443 149 l 443 594 q 307 540 351 593 q 263 372 263 488 q 307 203 263 257 q 443 149 351 150 z "},"х":{"ha":867,"x_min":17,"x_max":850,"o":"m 321 683 l 433 513 l 546 683 q 651 743 586 743 l 799 743 q 822 733 814 743 q 830 710 831 724 q 819 683 829 697 l 599 372 l 835 60 q 844 21 850 42 q 814 0 838 0 l 669 0 q 564 60 607 0 l 433 236 l 303 60 q 197 0 260 0 l 53 0 q 23 21 29 0 q 32 60 17 42 l 268 372 l 47 683 q 37 710 38 697 q 44 733 36 724 q 68 743 53 743 l 215 743 q 321 683 281 743 z "},"ц":{"ha":964,"x_min":83,"x_max":950,"o":"m 842 701 l 842 164 l 908 164 q 938 152 926 164 q 950 122 950 140 l 950 42 q 938 12 950 24 q 908 0 926 0 l 125 0 q 95 12 107 0 q 83 42 83 24 l 83 701 q 95 731 83 719 q 125 743 107 743 l 276 743 q 306 731 294 743 q 318 701 318 719 l 318 164 l 607 164 l 607 701 q 619 731 607 719 q 649 743 631 743 l 800 743 q 830 731 818 743 q 842 701 842 719 z "},"ч":{"ha":861,"x_min":42,"x_max":778,"o":"m 42 501 l 42 701 q 53 731 42 719 q 83 743 65 743 l 235 743 q 265 731 253 743 q 276 701 276 719 l 276 501 q 303 426 276 450 q 371 403 329 403 l 543 403 l 543 701 q 555 731 543 719 q 585 743 567 743 l 736 743 q 766 731 754 743 q 778 701 778 719 l 778 42 q 766 12 778 24 q 736 0 754 0 l 585 0 q 555 12 567 0 q 543 42 543 24 l 543 239 l 371 239 q 122 298 201 239 q 42 501 42 357 z "},"ш":{"ha":1296,"x_min":83,"x_max":1213,"o":"m 1171 0 l 125 0 q 95 12 107 0 q 83 42 83 24 l 83 701 q 95 731 83 719 q 125 743 107 743 l 276 743 q 306 731 294 743 q 318 701 318 719 l 318 164 l 531 164 l 531 701 q 542 731 531 719 q 572 743 554 743 l 724 743 q 753 731 742 743 q 765 701 765 719 l 765 164 l 978 164 l 978 701 q 990 731 978 719 q 1019 743 1001 743 l 1171 743 q 1201 731 1189 743 q 1213 701 1213 719 l 1213 42 q 1201 12 1213 24 q 1171 0 1189 0 z "},"щ":{"ha":1335,"x_min":83,"x_max":1321,"o":"m 1279 0 l 125 0 q 95 12 107 0 q 83 42 83 24 l 83 701 q 95 731 83 719 q 125 743 107 743 l 276 743 q 306 731 294 743 q 318 701 318 719 l 318 164 l 531 164 l 531 701 q 542 731 531 719 q 572 743 554 743 l 724 743 q 753 731 742 743 q 765 701 765 719 l 765 164 l 978 164 l 978 701 q 990 731 978 719 q 1019 743 1001 743 l 1171 743 q 1201 731 1189 743 q 1213 701 1213 719 l 1213 164 l 1279 164 q 1309 152 1297 164 q 1321 122 1321 140 l 1321 42 q 1309 12 1321 24 q 1279 0 1297 0 z "},"ъ":{"ha":975,"x_min":14,"x_max":940,"o":"m 617 343 l 446 343 l 446 154 l 617 154 q 682 178 658 154 q 706 249 706 203 q 682 319 706 294 q 617 343 658 343 m 14 621 l 14 701 q 26 731 14 719 q 56 743 38 743 l 404 743 q 434 731 422 743 q 446 701 446 719 l 446 497 l 638 497 q 861 440 782 497 q 940 249 940 383 q 861 57 940 114 q 638 0 782 0 l 253 0 q 223 12 235 0 q 211 42 211 24 l 211 579 l 56 579 q 26 591 38 579 q 14 621 14 603 z "},"ы":{"ha":1196,"x_min":83,"x_max":1113,"o":"m 318 497 l 479 497 q 703 440 624 497 q 782 249 782 383 q 703 57 782 114 q 479 0 624 0 l 125 0 q 95 12 107 0 q 83 42 83 24 l 83 701 q 95 731 83 719 q 125 743 107 743 l 276 743 q 306 731 294 743 q 318 701 318 719 l 318 497 m 458 346 l 314 346 l 314 151 l 458 151 q 547 249 547 151 q 458 346 547 346 m 1071 0 l 919 0 q 890 12 901 0 q 878 42 878 24 l 878 701 q 890 731 878 719 q 919 743 901 743 l 1071 743 q 1101 731 1089 743 q 1113 701 1113 719 l 1113 42 q 1101 12 1113 24 q 1071 0 1089 0 z "},"ь":{"ha":861,"x_min":83,"x_max":826,"o":"m 318 497 l 524 497 q 747 440 668 497 q 826 249 826 383 q 747 57 826 114 q 524 0 668 0 l 125 0 q 95 12 107 0 q 83 42 83 24 l 83 701 q 95 731 83 719 q 125 743 107 743 l 276 743 q 306 731 294 743 q 318 701 318 719 l 318 497 m 503 343 l 318 343 l 318 154 l 503 154 q 568 178 544 154 q 592 249 592 203 q 568 319 592 294 q 503 343 544 343 z "},"э":{"ha":863,"x_min":28,"x_max":821,"o":"m 418 757 q 717 659 614 757 q 821 371 821 561 q 717 83 821 181 q 411 -14 613 -14 q 129 43 231 -14 q 28 207 28 100 q 40 237 28 225 q 69 249 51 249 l 171 249 q 249 204 214 249 q 394 150 293 150 q 522 185 479 150 q 574 293 565 219 l 333 293 q 303 305 315 293 q 292 335 292 317 l 292 406 q 303 435 292 424 q 333 447 315 447 l 574 447 q 401 593 560 593 q 256 539 300 593 q 178 494 221 494 l 76 494 q 47 506 58 494 q 35 536 35 518 q 136 700 35 643 q 418 757 238 757 z "},"ю":{"ha":1238,"x_min":83,"x_max":1196,"o":"m 318 701 l 318 458 l 418 458 q 539 681 436 604 q 804 757 642 757 q 1092 658 988 757 q 1196 372 1196 560 q 1092 85 1196 183 q 804 -14 988 -14 q 536 65 639 -14 q 417 294 433 144 l 318 294 l 318 42 q 306 12 318 24 q 276 0 294 0 l 125 0 q 95 12 107 0 q 83 42 83 24 l 83 701 q 95 731 83 719 q 125 743 107 743 l 276 743 q 306 731 294 743 q 318 701 318 719 m 961 372 q 804 603 961 603 q 647 372 647 603 q 804 140 647 140 q 961 372 961 140 z "},"я":{"ha":878,"x_min":43,"x_max":794,"o":"m 560 265 l 426 265 l 311 60 q 206 0 278 0 l 83 0 q 51 18 58 0 q 58 60 43 36 l 194 288 q 50 504 50 342 q 353 743 50 743 l 753 743 q 783 731 771 743 q 794 701 794 719 l 794 42 q 783 12 794 24 q 753 0 771 0 l 601 0 q 572 12 583 0 q 560 42 560 24 l 560 265 m 374 419 l 560 419 l 560 589 l 374 589 q 308 566 332 589 q 285 504 285 543 q 308 442 285 465 q 374 419 332 419 z "},"ё":{"ha":875,"x_min":42,"x_max":833,"o":"m 792 300 l 281 300 q 328 178 288 217 q 454 140 369 140 q 588 186 550 140 q 665 222 617 222 l 767 222 q 797 210 785 222 q 808 181 808 199 q 438 -14 808 -14 q 146 85 250 -14 q 42 371 42 185 q 147 657 42 557 q 438 757 251 757 q 729 660 625 757 q 833 381 833 563 l 833 342 q 822 312 833 324 q 792 300 810 300 m 594 443 q 438 603 588 603 q 279 443 288 603 l 594 443 m 157 882 l 157 908 q 178 965 157 944 q 235 986 199 986 l 300 986 q 357 965 336 986 q 378 908 378 944 l 378 882 q 357 825 378 846 q 300 804 336 804 l 235 804 q 178 825 199 804 q 157 882 157 846 m 497 882 l 497 908 q 518 965 497 944 q 575 986 539 986 l 640 986 q 697 965 676 986 q 718 908 718 944 l 718 882 q 697 825 718 846 q 640 804 676 804 l 575 804 q 518 825 539 804 q 497 882 497 846 z "},"ђ":{"ha":1013,"x_min":14,"x_max":929,"o":"m 694 76 l 694 333 q 565 496 694 496 q 383 399 481 496 l 383 42 q 372 12 383 24 q 342 0 360 0 l 190 0 q 160 12 172 0 q 149 42 149 24 l 149 715 l 56 715 q 26 727 38 715 q 14 757 14 739 l 14 831 q 26 860 14 849 q 56 872 38 872 l 149 872 l 149 931 q 160 960 149 949 q 190 972 172 972 l 342 972 q 372 960 360 972 q 383 931 383 949 l 383 872 l 490 872 q 520 860 508 872 q 532 831 532 849 l 532 757 q 520 727 532 739 q 490 715 508 715 l 383 715 l 383 561 q 621 660 500 660 q 847 579 764 660 q 929 333 929 499 l 929 76 q 667 -243 929 -243 q 514 -229 574 -243 q 472 -187 472 -219 l 472 -114 q 484 -84 472 -96 q 514 -72 496 -72 l 535 -72 q 569 -77 547 -72 q 604 -82 590 -82 q 668 -44 642 -82 q 694 76 694 -7 z "},"ѓ":{"ha":688,"x_min":83,"x_max":674,"o":"m 632 579 l 318 579 l 318 42 q 306 12 318 24 q 276 0 294 0 l 125 0 q 95 12 107 0 q 83 42 83 24 l 83 701 q 95 731 83 719 q 125 743 107 743 l 632 743 q 662 731 650 743 q 674 701 674 719 l 674 621 q 662 591 674 603 q 632 579 650 579 m 564 1014 l 476 872 q 369 794 428 794 l 351 794 q 289 886 261 794 l 336 1042 q 376 1097 346 1074 q 439 1119 406 1119 l 486 1119 q 566 1089 542 1119 q 564 1014 590 1058 z "},"є":{"ha":863,"x_min":42,"x_max":835,"o":"m 444 757 q 726 700 625 757 q 828 536 828 643 q 816 506 828 518 q 786 494 804 494 l 685 494 q 607 539 642 494 q 461 593 563 593 q 289 447 303 593 l 529 447 q 559 435 547 447 q 571 406 571 424 l 571 335 q 559 305 571 317 q 529 293 547 293 l 289 293 q 340 185 297 219 q 468 150 383 150 q 614 204 569 150 q 692 249 649 249 l 793 249 q 823 237 811 249 q 835 207 835 225 q 733 43 835 100 q 451 -14 632 -14 q 146 83 250 -14 q 42 371 42 181 q 145 659 42 561 q 444 757 249 757 z "},"ѕ":{"ha":831,"x_min":42,"x_max":789,"o":"m 789 206 q 688 40 789 93 q 415 -14 588 -14 q 43 181 43 -14 q 55 210 43 199 q 85 222 67 222 l 186 222 q 264 186 235 222 q 399 140 301 140 q 554 206 554 140 q 501 256 554 236 q 373 292 449 276 q 222 332 297 308 q 94 408 147 356 q 42 538 42 460 q 139 703 42 649 q 394 757 236 757 q 767 563 767 757 q 755 533 767 544 q 725 521 743 521 l 624 521 q 546 557 575 521 q 411 603 508 603 q 276 538 276 603 q 329 487 276 507 q 458 451 382 467 q 608 413 533 436 q 736 337 683 389 q 789 206 789 285 z "},"і":{"ha":407,"x_min":83,"x_max":324,"o":"m 279 0 l 128 0 q 98 12 110 0 q 86 42 86 24 l 86 685 q 98 715 86 703 q 128 726 110 726 l 279 726 q 309 715 297 726 q 321 685 321 703 l 321 42 q 309 12 321 24 q 279 0 297 0 m 83 885 l 83 908 q 104 965 83 944 q 161 986 125 986 l 246 986 q 303 965 282 986 q 324 908 324 944 l 324 885 q 303 828 324 849 q 246 807 282 807 l 161 807 q 104 828 125 807 q 83 885 83 849 z "},"ї":{"ha":426,"x_min":-28,"x_max":454,"o":"m 289 0 l 138 0 q 108 12 119 0 q 96 42 96 24 l 96 685 q 108 715 96 703 q 138 726 119 726 l 289 726 q 319 715 307 726 q 331 685 331 703 l 331 42 q 319 12 331 24 q 289 0 307 0 m 249 889 l 249 913 q 269 969 249 949 q 326 990 290 990 l 376 990 q 433 969 413 990 q 454 913 454 949 l 454 889 q 433 832 454 853 q 376 811 413 811 l 326 811 q 269 832 290 811 q 249 889 249 853 m -28 885 l -28 908 q -7 965 -28 944 q 50 986 14 986 l 100 986 q 157 965 136 986 q 178 908 178 944 l 178 885 q 157 828 178 849 q 100 807 136 807 l 50 807 q -7 828 14 807 q -28 885 -28 849 z "},"ј":{"ha":418,"x_min":-125,"x_max":335,"o":"m 332 685 l 332 76 q 69 -243 332 -243 q -83 -229 -24 -243 q -125 -187 -125 -219 l -125 -114 q -113 -84 -125 -96 q -83 -72 -101 -72 l -62 -72 q -28 -77 -50 -72 q 7 -82 -7 -82 q 71 -44 44 -82 q 97 76 97 -7 l 97 685 q 109 715 97 703 q 139 726 121 726 l 290 726 q 320 715 308 726 q 332 685 332 703 m 94 885 l 94 908 q 115 965 94 944 q 172 986 136 986 l 257 986 q 314 965 293 986 q 335 908 335 944 l 335 885 q 314 828 335 849 q 257 807 293 807 l 172 807 q 115 828 136 807 q 94 885 94 849 z "},"љ":{"ha":1335,"x_min":11,"x_max":1307,"o":"m 358 479 l 251 50 q 228 14 246 28 q 189 0 210 0 l 50 0 q 22 13 32 0 q 15 44 11 26 l 138 538 q 478 743 189 743 l 771 743 q 801 731 789 743 q 813 701 813 719 l 813 497 l 1004 497 q 1228 440 1149 497 q 1307 249 1307 383 q 1228 57 1307 114 q 1004 0 1149 0 l 619 0 q 590 12 601 0 q 578 42 578 24 l 578 579 l 478 579 q 358 479 383 579 m 983 343 l 813 343 l 813 154 l 983 154 q 1049 178 1025 154 q 1072 249 1072 203 q 1049 319 1072 294 q 983 343 1025 343 z "},"њ":{"ha":1344,"x_min":83,"x_max":1317,"o":"m 318 701 l 318 472 l 588 472 l 588 701 q 599 731 588 719 q 629 743 611 743 l 781 743 q 810 731 799 743 q 822 701 822 719 l 822 472 l 1014 472 q 1317 236 1317 472 q 1014 0 1317 0 l 629 0 q 599 12 611 0 q 588 42 588 24 l 588 308 l 318 308 l 318 42 q 306 12 318 24 q 276 0 294 0 l 125 0 q 95 12 107 0 q 83 42 83 24 l 83 701 q 95 731 83 719 q 125 743 107 743 l 276 743 q 306 731 294 743 q 318 701 318 719 m 993 318 l 822 318 l 822 154 l 993 154 q 1058 176 1035 154 q 1082 236 1082 197 q 1058 297 1082 275 q 993 318 1035 318 z "},"ћ":{"ha":1013,"x_min":14,"x_max":929,"o":"m 56 872 l 149 872 l 149 931 q 160 960 149 949 q 190 972 172 972 l 342 972 q 372 960 360 972 q 383 931 383 949 l 383 872 l 490 872 q 520 860 508 872 q 532 831 532 849 l 532 757 q 520 727 532 739 q 490 715 508 715 l 383 715 l 383 561 q 621 660 500 660 q 847 579 764 660 q 929 333 929 499 l 929 42 q 917 12 929 24 q 888 0 906 0 l 736 0 q 706 12 718 0 q 694 42 694 24 l 694 333 q 565 496 694 496 q 383 399 481 496 l 383 42 q 372 12 383 24 q 342 0 360 0 l 190 0 q 160 12 172 0 q 149 42 149 24 l 149 715 l 56 715 q 26 727 38 715 q 14 757 14 739 l 14 831 q 26 860 14 849 q 56 872 38 872 z "},"ќ":{"ha":847,"x_min":83,"x_max":838,"o":"m 793 679 l 706 494 q 644 415 683 449 q 561 372 606 382 q 706 250 644 347 l 821 64 q 831 18 838 36 q 797 0 824 0 l 669 0 q 565 64 604 0 l 479 204 q 318 294 424 294 l 318 42 q 306 12 318 24 q 276 0 294 0 l 125 0 q 95 12 107 0 q 83 42 83 24 l 83 701 q 95 731 83 719 q 125 743 107 743 l 276 743 q 306 731 294 743 q 318 701 318 719 l 318 449 q 479 540 436 449 l 544 679 q 585 726 558 708 q 642 743 611 743 l 769 743 q 793 679 822 743 m 638 1004 l 550 863 q 443 785 501 785 l 425 785 q 363 876 335 785 l 410 1032 q 449 1087 419 1064 q 513 1110 479 1110 l 560 1110 q 640 1079 615 1110 q 638 1004 664 1049 z "},"ў":{"ha":878,"x_min":18,"x_max":867,"o":"m 317 -82 q 450 58 413 -82 q 258 128 335 58 q 125 375 181 197 l 24 703 q 28 731 18 718 q 56 743 39 743 l 197 743 q 235 730 217 743 q 258 697 253 717 l 347 410 q 415 263 381 304 q 496 222 449 222 l 631 697 q 652 730 636 717 q 688 743 668 743 l 831 743 q 857 731 847 743 q 863 703 867 718 l 685 69 q 567 -171 638 -99 q 379 -243 497 -243 q 203 -229 276 -243 q 173 -215 185 -226 q 161 -187 161 -203 l 161 -112 q 173 -83 161 -94 q 203 -71 185 -71 l 228 -71 q 272 -76 243 -71 q 317 -82 300 -82 m 261 1021 l 313 1021 q 360 986 346 1021 q 451 931 382 931 q 543 986 521 931 q 590 1021 557 1021 l 642 1021 q 679 986 679 1021 q 616 856 679 907 q 451 806 553 806 q 287 856 350 806 q 224 986 224 907 q 261 1021 224 1021 z "},"џ":{"ha":933,"x_min":83,"x_max":850,"o":"m 850 701 l 850 42 q 838 12 850 24 q 808 0 826 0 l 572 0 l 572 -176 q 560 -206 572 -194 q 531 -218 549 -218 l 403 -218 q 373 -206 385 -218 q 361 -176 361 -194 l 361 0 l 125 0 q 95 12 107 0 q 83 42 83 24 l 83 701 q 95 731 83 719 q 125 743 107 743 l 276 743 q 306 731 294 743 q 318 701 318 719 l 318 164 l 615 164 l 615 701 q 627 731 615 719 q 657 743 639 743 l 808 743 q 838 731 826 743 q 850 701 850 719 z "},"Ґ":{"ha":894,"x_min":97,"x_max":881,"o":"m 649 972 l 649 1057 q 667 1101 649 1083 q 713 1119 686 1119 l 817 1119 q 862 1101 843 1119 q 881 1057 881 1083 l 881 844 q 863 799 881 817 q 817 781 844 781 l 353 781 l 353 63 q 334 18 353 36 q 289 0 315 0 l 161 0 q 116 18 135 0 q 97 63 97 36 l 97 908 q 115 954 97 936 q 161 972 133 972 l 649 972 z "},"ґ":{"ha":688,"x_min":83,"x_max":674,"o":"m 125 743 l 467 743 l 467 829 q 478 859 467 847 q 508 871 490 871 l 632 871 q 662 859 650 871 q 674 829 674 847 l 674 621 q 662 591 674 603 q 632 579 650 579 l 318 579 l 318 42 q 306 12 318 24 q 276 0 294 0 l 125 0 q 95 12 107 0 q 83 42 83 24 l 83 701 q 95 731 83 719 q 125 743 107 743 z "},"–":{"ha":518,"x_min":28,"x_max":490,"o":"m 69 507 l 449 507 q 478 495 467 507 q 490 465 490 483 l 490 363 q 478 333 490 344 q 449 321 467 321 l 69 321 q 40 333 51 321 q 28 363 28 344 l 28 465 q 40 495 28 483 q 69 507 51 507 z "},"—":{"ha":853,"x_min":28,"x_max":825,"o":"m 69 508 l 783 508 q 813 497 801 508 q 825 467 825 485 l 825 386 q 813 356 825 368 q 783 344 801 344 l 69 344 q 40 356 51 344 q 28 386 28 368 l 28 467 q 40 497 28 485 q 69 508 51 508 z "},"‘":{"ha":374,"x_min":46,"x_max":350,"o":"m 65 690 l 146 894 q 188 950 160 928 q 253 972 217 972 l 279 972 q 336 950 322 972 q 342 881 350 928 l 301 663 q 265 608 296 631 q 199 585 233 585 l 143 585 q 67 613 89 585 q 65 690 46 642 z "},"’":{"ha":374,"x_min":24,"x_max":328,"o":"m 308 867 l 228 663 q 185 607 214 629 q 121 585 157 585 l 94 585 q 38 607 51 585 q 32 676 24 629 l 72 894 q 109 949 78 926 q 175 972 140 972 l 231 972 q 306 944 285 972 q 308 867 328 915 z "},"‚":{"ha":374,"x_min":24,"x_max":328,"o":"m 308 114 l 228 -90 q 185 -146 214 -124 q 121 -168 157 -168 l 94 -168 q 38 -146 51 -168 q 32 -76 24 -124 l 72 142 q 109 197 78 174 q 175 219 140 219 l 231 219 q 306 191 285 219 q 308 114 328 163 z "},"“":{"ha":665,"x_min":46,"x_max":642,"o":"m 357 690 l 438 894 q 480 950 451 928 q 544 972 508 972 l 571 972 q 628 950 614 972 q 633 881 642 928 l 593 663 q 556 608 588 631 q 490 585 525 585 l 435 585 q 359 613 381 585 q 357 690 338 642 m 65 690 l 146 894 q 188 950 160 928 q 253 972 217 972 l 279 972 q 336 950 322 972 q 342 881 350 928 l 301 663 q 265 608 296 631 q 199 585 233 585 l 143 585 q 67 613 89 585 q 65 690 46 642 z "},"”":{"ha":665,"x_min":24,"x_max":619,"o":"m 308 867 l 228 663 q 185 607 214 629 q 121 585 157 585 l 94 585 q 38 607 51 585 q 32 676 24 629 l 72 894 q 109 949 78 926 q 175 972 140 972 l 231 972 q 306 944 285 972 q 308 867 328 915 m 600 867 l 519 663 q 477 607 506 629 q 413 585 449 585 l 386 585 q 329 607 343 585 q 324 676 315 629 l 364 894 q 401 949 369 926 q 467 972 432 972 l 522 972 q 598 944 576 972 q 600 867 619 915 z "},"„":{"ha":665,"x_min":24,"x_max":619,"o":"m 308 114 l 228 -90 q 185 -146 214 -124 q 121 -168 157 -168 l 94 -168 q 38 -146 51 -168 q 32 -76 24 -124 l 72 142 q 109 197 78 174 q 175 219 140 219 l 231 219 q 306 191 285 219 q 308 114 328 163 m 600 114 l 519 -90 q 477 -146 506 -124 q 413 -168 449 -168 l 386 -168 q 329 -146 343 -168 q 324 -76 315 -124 l 364 142 q 401 197 369 174 q 467 219 432 219 l 522 219 q 598 191 576 219 q 600 114 619 163 z "},"†":{"ha":1158,"x_min":10,"x_max":1061,"o":"m 806 351 l 240 351 l 318 639 q 431 799 347 747 q 631 850 514 850 l 1061 850 l 1061 63 q 1042 18 1061 36 q 997 0 1024 0 l 869 0 q 824 18 842 0 q 806 64 806 36 l 806 228 l 338 228 l 292 64 q 261 18 285 36 q 211 0 238 0 l 149 0 l 233 313 l 806 313 l 806 351 m 17 63 l 188 708 q 638 972 257 972 l 1003 972 q 1044 953 1028 972 q 1061 910 1061 935 l 1061 889 l 618 889 q 388 825 471 889 q 283 675 306 761 l 106 0 l 64 0 q 24 18 38 0 q 17 63 10 36 m 443 631 l 388 433 l 806 433 l 806 767 l 626 767 q 510 730 560 767 q 443 631 460 693 z "},"‡":{"ha":610,"x_min":14,"x_max":596,"o":"m 56 743 l 188 743 l 188 931 q 199 960 188 949 q 229 972 211 972 l 381 972 q 410 960 399 972 q 422 931 422 949 l 422 743 l 554 743 q 584 731 572 743 q 596 701 596 719 l 596 621 q 584 591 596 603 q 554 579 572 579 l 422 579 l 422 164 l 554 164 q 584 152 572 164 q 596 122 596 140 l 596 42 q 584 12 596 24 q 554 0 572 0 l 422 0 l 422 -187 q 410 -217 422 -206 q 381 -229 399 -229 l 229 -229 q 199 -217 211 -229 q 188 -187 188 -206 l 188 0 l 56 0 q 26 12 38 0 q 14 42 14 24 l 14 122 q 26 152 14 140 q 56 164 38 164 l 188 164 l 188 579 l 56 579 q 26 591 38 579 q 14 621 14 603 l 14 701 q 26 731 14 719 q 56 743 38 743 z "},"•":{"ha":556,"x_min":42,"x_max":514,"o":"m 447 588 q 480 558 447 588 q 514 424 514 528 q 447 259 514 319 q 278 199 379 199 q 109 259 176 199 q 42 424 42 319 q 109 588 42 528 q 278 649 176 649 q 447 588 379 649 z "},"…":{"ha":1031,"x_min":56,"x_max":975,"o":"m 56 85 l 56 128 q 79 196 56 172 q 147 219 103 219 l 231 219 q 299 196 275 219 q 322 128 322 172 l 322 85 q 299 17 322 42 q 231 -7 275 -7 l 147 -7 q 79 17 103 -7 q 56 85 56 42 m 382 85 l 382 128 q 406 196 382 172 q 474 219 431 219 l 557 219 q 624 196 600 219 q 649 128 649 172 l 649 85 q 624 17 649 42 q 557 -7 600 -7 l 474 -7 q 406 17 431 -7 q 382 85 382 42 m 708 85 l 708 128 q 732 196 708 172 q 800 219 756 219 l 883 219 q 951 196 928 219 q 975 128 975 172 l 975 85 q 951 17 975 42 q 883 -7 928 -7 l 800 -7 q 732 17 756 -7 q 708 85 708 42 z "},"‰":{"ha":1596,"x_min":42,"x_max":1554,"o":"m 913 972 l 1021 972 q 1055 951 1047 972 q 1044 908 1063 931 l 368 64 q 250 0 318 0 l 142 0 q 108 21 115 0 q 118 64 100 42 l 794 908 q 913 972 844 972 m 881 140 q 892 153 881 140 q 903 213 903 167 q 881 285 903 258 q 825 311 860 311 q 773 285 792 311 q 754 213 754 260 q 773 140 754 165 q 825 114 792 114 q 881 140 860 114 m 993 377 q 1027 347 993 377 q 1061 213 1061 317 q 993 48 1061 108 q 825 -12 925 -12 q 661 48 726 -12 q 596 213 596 108 q 661 377 596 317 q 825 438 726 438 q 993 377 925 438 m 335 689 q 345 702 335 689 q 356 761 356 715 q 335 833 356 807 q 278 860 314 860 q 221 833 242 860 q 200 761 200 807 q 221 689 200 715 q 278 663 242 663 q 335 689 314 663 m 447 926 q 480 895 447 926 q 514 761 514 865 q 447 597 514 657 q 278 536 379 536 q 109 597 176 536 q 42 761 42 657 q 109 926 42 865 q 278 986 176 986 q 447 926 379 986 m 1374 140 q 1385 153 1374 140 q 1396 213 1396 167 q 1374 285 1396 258 q 1318 311 1353 311 q 1266 285 1285 311 q 1247 213 1247 260 q 1266 140 1247 165 q 1318 114 1285 114 q 1374 140 1353 114 m 1486 377 q 1520 347 1486 377 q 1554 213 1554 317 q 1486 48 1554 108 q 1318 -12 1418 -12 q 1154 48 1219 -12 q 1089 213 1089 108 q 1154 377 1089 317 q 1318 438 1219 438 q 1486 377 1418 438 z "},"‹":{"ha":583,"x_min":42,"x_max":528,"o":"m 42 354 l 42 388 q 82 461 42 432 l 468 735 q 510 741 492 750 q 528 707 528 732 l 528 590 q 468 499 528 540 l 288 371 l 468 243 q 528 151 528 201 l 528 35 q 510 1 528 10 q 468 7 492 -8 l 82 281 q 42 354 42 310 z "},"›":{"ha":583,"x_min":56,"x_max":542,"o":"m 542 388 l 542 354 q 501 281 542 310 l 115 7 q 74 1 92 -8 q 56 35 56 10 l 56 151 q 115 243 56 201 l 296 371 l 115 499 q 56 590 56 540 l 56 707 q 74 741 56 732 q 115 735 92 750 l 501 461 q 542 388 542 432 z "},"€":{"ha":1201,"x_min":0,"x_max":1167,"o":"m 0 468 l 764 468 l 764 436 q 752 406 764 418 q 722 394 740 394 l 368 394 q 431 233 374 279 q 618 186 489 186 l 753 186 q 919 279 874 186 q 1017 354 956 354 l 1097 354 q 1124 349 1110 354 q 1152 326 1138 344 q 1167 279 1167 307 q 1108 125 1167 192 q 961 26 1049 58 q 776 -6 874 -6 l 611 -6 q 113 394 153 -6 l 42 394 q 12 406 24 394 q 0 436 0 418 l 0 468 m 785 506 l 21 506 l 21 538 q 33 567 21 556 q 63 579 44 579 l 113 579 q 611 978 157 978 l 763 978 q 947 946 860 978 q 1094 847 1035 914 q 1153 693 1153 781 q 1129 635 1153 653 q 1083 618 1106 618 l 1003 618 q 906 693 942 618 q 739 786 860 786 l 618 786 q 432 740 489 786 q 368 579 375 693 l 743 579 q 773 567 761 579 q 785 538 785 556 l 785 506 z "},"№":{"ha":1632,"x_min":97,"x_max":1604,"o":"m 281 0 l 161 0 q 116 19 135 0 q 97 64 97 38 l 97 908 q 115 953 97 935 q 160 972 133 972 l 360 972 q 410 953 383 972 q 453 908 438 933 l 835 288 l 835 910 q 853 954 835 936 q 899 972 872 972 l 1015 972 q 1060 954 1042 972 q 1079 908 1079 936 l 1079 64 q 1060 19 1079 38 q 1015 0 1042 0 l 790 0 q 736 19 764 0 q 692 64 708 38 l 344 636 l 344 64 q 326 19 344 38 q 281 0 307 0 m 1204 490 l 1532 490 q 1562 478 1550 490 q 1574 449 1574 467 l 1574 368 q 1562 338 1574 350 q 1532 326 1550 326 l 1204 326 q 1174 338 1186 326 q 1163 368 1163 350 l 1163 449 q 1174 478 1163 467 q 1204 490 1186 490 m 1425 689 q 1435 702 1425 689 q 1446 761 1446 715 q 1425 833 1446 807 q 1368 860 1404 860 q 1311 833 1332 860 q 1290 761 1290 807 q 1311 689 1290 715 q 1368 663 1332 663 q 1425 689 1404 663 m 1537 926 q 1570 895 1537 926 q 1604 761 1604 865 q 1537 597 1604 657 q 1368 536 1469 536 q 1199 597 1267 536 q 1132 761 1132 657 q 1199 926 1132 865 q 1368 986 1267 986 q 1537 926 1469 986 z "},"™":{"ha":1119,"x_min":0,"x_max":1078,"o":"m 24 972 l 422 972 q 447 947 447 972 l 447 900 q 422 875 447 875 l 293 875 l 293 551 q 285 534 293 542 q 268 526 278 526 l 178 526 q 160 534 167 526 q 153 551 153 542 l 153 875 l 24 875 q 0 900 0 875 l 0 947 q 24 972 0 972 m 799 526 l 760 526 q 721 556 736 526 l 618 806 l 618 551 q 610 534 618 542 q 593 526 603 526 l 506 526 q 488 534 494 526 q 481 551 481 542 l 481 947 q 506 972 481 972 l 644 972 q 681 943 668 972 l 779 700 l 878 943 q 914 972 890 972 l 1053 972 q 1078 947 1078 972 l 1078 551 q 1071 534 1078 542 q 1053 526 1064 526 l 965 526 q 948 534 956 526 q 940 551 940 542 l 940 806 l 838 556 q 799 526 822 526 z "}}}
